<?xml version="1.0" encoding="UTF-8"?>
<svg width="24px" height="24px" viewBox="0 0 24 24" version="1.1" xmlns="http://www.w3.org/2000/svg" xmlns:xlink="http://www.w3.org/1999/xlink">
    <!-- Generator: Sketch 61 (89581) - https://sketch.com -->
    <title>SVG/White/white/multimedia/battery</title>
    <desc>Created with Sketch.</desc>
    <g id="white/multimedia/battery" stroke="none" stroke-width="1" fill="none" fill-rule="evenodd">
        <rect id="Boundary" fill-opacity="0" fill="#FFFFFF" x="0" y="0" width="24" height="24"></rect>
        <path d="M16,2 L16,5 L18,5 L18,22 L6,22 L6,5 L8,5 L8,2 L16,2 Z M16,7 L8,7 L8,20 L16,20 L16,7 Z M14,16 L14,18 L10,18 L10,16 L14,16 Z M14,12.5 L14,14.5 L10,14.5 L10,12.5 L14,12.5 Z M14,9 L14,11 L10,11 L10,9 L14,9 Z M14,4 L10,4 L10,5 L14,5 L14,4 Z" id="Shape" fill="#FFFFFF" fill-rule="nonzero"></path>
    </g>
</svg>