<?xml version="1.0" encoding="UTF-8"?>
<svg width="24px" height="24px" viewBox="0 0 24 24" version="1.1" xmlns="http://www.w3.org/2000/svg" xmlns:xlink="http://www.w3.org/1999/xlink">
    <!-- Generator: Sketch 61 (89581) - https://sketch.com -->
    <title>SVG/White/white/multimedia/camera</title>
    <desc>Created with Sketch.</desc>
    <g id="white/multimedia/camera" stroke="none" stroke-width="1" fill="none" fill-rule="evenodd">
        <rect id="Boundary" fill-opacity="0" fill="#FFFFFF" x="0" y="0" width="24" height="24"></rect>
        <path d="M14.322967,3.75 C15.1407762,3.75 15.8761937,4.24790189 16.1799204,5.00721865 L16.677033,6.25 L19,6.25 C20.6568542,6.25 22,7.59314575 22,9.25 L22,17.25 C22,18.9068542 20.6568542,20.25 19,20.25 L5,20.25 C3.34314575,20.25 2,18.9068542 2,17.25 L2,9.25 C2,7.59314575 3.34314575,6.25 5,6.25 L7.32296704,6.25 L7.82007958,5.00721865 C8.12380628,4.24790189 8.85922378,3.75 9.67703296,3.75 L14.322967,3.75 Z M14.322967,5.75 L9.67703296,5.75 L8.67703296,8.25 L5,8.25 C4.44771525,8.25 4,8.69771525 4,9.25 L4,17.25 C4,17.8022847 4.44771525,18.25 5,18.25 L19,18.25 C19.5522847,18.25 20,17.8022847 20,17.25 L20,9.25 C20,8.69771525 19.5522847,8.25 19,8.25 L15.322967,8.25 L14.322967,5.75 Z M12,9 C14.209139,9 16,10.790861 16,13 C16,15.209139 14.209139,17 12,17 C9.790861,17 8,15.209139 8,13 C8,10.790861 9.790861,9 12,9 Z M12,11 C10.8954305,11 10,11.8954305 10,13 C10,14.1045695 10.8954305,15 12,15 C13.1045695,15 14,14.1045695 14,13 C14,11.8954305 13.1045695,11 12,11 Z" id="Shape" fill="#FFFFFF" fill-rule="nonzero"></path>
    </g>
</svg>