<?xml version="1.0" encoding="UTF-8"?>
<svg width="24px" height="24px" viewBox="0 0 24 24" version="1.1" xmlns="http://www.w3.org/2000/svg" xmlns:xlink="http://www.w3.org/1999/xlink">
    <!-- Generator: Sketch 61 (89581) - https://sketch.com -->
    <title>SVG/White/white/multimedia/music</title>
    <desc>Created with Sketch.</desc>
    <g id="white/multimedia/music" stroke="none" stroke-width="1" fill="none" fill-rule="evenodd">
        <rect id="Boundary" fill-opacity="0" fill="#FFFFFF" x="0" y="0" width="24" height="24"></rect>
        <path d="M18,4 L17.999,5 L18,5 L18,16.5 C18,17.8807119 16.8807119,19 15.5,19 C14.1192881,19 13,17.8807119 13,16.5 C13,15.1192881 14.1192881,14 15.5,14 C15.6713864,14 15.8387448,14.017246 16.0004345,14.0500973 L16,6.6 L10,8.4 L10,17.5 C10,18.8254834 8.96846406,19.9100387 7.66437569,19.9946823 L7.5,20 C6.11928813,20 5,18.8807119 5,17.5 C5,16.1192881 6.11928813,15 7.5,15 C7.67138643,15 7.83874484,15.017246 8.00043449,15.0500973 L8,9 L8,9 L8,7 L18,4 Z" id="Shape" fill="#FFFFFF" fill-rule="nonzero"></path>
    </g>
</svg>