<?xml version="1.0" encoding="UTF-8"?>
<svg width="24px" height="24px" viewBox="0 0 24 24" version="1.1" xmlns="http://www.w3.org/2000/svg" xmlns:xlink="http://www.w3.org/1999/xlink">
    <!-- Generator: Sketch 61 (89581) - https://sketch.com -->
    <title>SVG/White/white/multimedia/video</title>
    <desc>Created with Sketch.</desc>
    <g id="white/multimedia/video" stroke="none" stroke-width="1" fill="none" fill-rule="evenodd">
        <rect id="Boundary" fill-opacity="0" fill="#FFFFFF" x="0" y="0" width="24" height="24"></rect>
        <path d="M21,3 L21,21 L3,21 L3,3 L21,3 Z M16,13 L8,13 L8,19 L16,19 L16,13 Z M6.5,17 L4.5,17 L4.5,19 L6.5,19 L6.5,17 Z M19.5,17 L17.5,17 L17.5,19 L19.5,19 L19.5,17 Z M6.5,13 L4.5,13 L4.5,15 L6.5,15 L6.5,13 Z M19.5,13 L17.5,13 L17.5,15 L19.5,15 L19.5,13 Z M16,5 L8,5 L8,11 L16,11 L16,5 Z M6.5,9 L4.5,9 L4.5,11 L6.5,11 L6.5,9 Z M19.5,9 L17.5,9 L17.5,11 L19.5,11 L19.5,9 Z M6.5,5 L4.5,5 L4.5,7 L6.5,7 L6.5,5 Z M19.5,5 L17.5,5 L17.5,7 L19.5,7 L19.5,5 Z" id="Shape" fill="#FFFFFF" fill-rule="nonzero"></path>
    </g>
</svg>