<?xml version="1.0" encoding="UTF-8"?>
<svg width="24px" height="24px" viewBox="0 0 24 24" version="1.1" xmlns="http://www.w3.org/2000/svg" xmlns:xlink="http://www.w3.org/1999/xlink">
    <!-- Generator: Sketch 61 (89581) - https://sketch.com -->
    <title>SVG/White/white/UI/calendar</title>
    <desc>Created with Sketch.</desc>
    <g id="white/UI/calendar" stroke="none" stroke-width="1" fill="none" fill-rule="evenodd">
        <rect id="Boundary" fill-opacity="0" fill="#FFFFFF" x="0" y="0" width="24" height="24"></rect>
        <path d="M6,11 L6,18 L18,18 L18,11 L6,11 Z M11,3 L11,7 L9,7 L9,3 L11,3 Z M15,3 L15,7 L13,7 L13,3 L15,3 Z M6,9 L18,9 L18,6 L17,6 L17,4 L20,4 L20,20 L4,20 L4,4 L7,4 L7,6 L6,6 L6,9 Z" id="Shape" fill="#FFFFFF" fill-rule="nonzero"></path>
    </g>
</svg>