<?xml version="1.0" encoding="UTF-8"?>
<svg width="24px" height="24px" viewBox="0 0 24 24" version="1.1" xmlns="http://www.w3.org/2000/svg" xmlns:xlink="http://www.w3.org/1999/xlink">
    <!-- Generator: Sketch 61 (89581) - https://sketch.com -->
    <title>SVG/White/white/UI/garbage</title>
    <desc>Created with Sketch.</desc>
    <g id="white/UI/garbage" stroke="none" stroke-width="1" fill="none" fill-rule="evenodd">
        <rect id="Boundary" fill-opacity="0" fill="#FFFFFF" x="0" y="0" width="24" height="24"></rect>
        <path d="M18.9969545,7.5 L18.9969545,19.5 L18,19.5 L18,21.5 L6,21.5 L6,19.5 L5,19.5 L5,7.5 L3,7.5 L3,5.5 L21,5.5 L21,7.5 L18.9969545,7.5 Z M16.9969545,7.5 L7,7.5 L7,19.5 L16.9969545,19.5 L16.9969545,7.5 Z M8,9.5 L10,9.5 L10,17.5 L8,17.5 L8,9.5 Z M11,9.5 L13,9.5 L13,17.5 L11,17.5 L11,9.5 Z M14,9.5 L16,9.5 L16,17.5 L14,17.5 L14,9.5 Z M7,2.5 L17,2.5 L17,4.5 L7,4.5 L7,2.5 Z" id="Shape" fill="#FFFFFF" fill-rule="nonzero"></path>
    </g>
</svg>