<?xml version="1.0" encoding="UTF-8"?>
<svg width="24px" height="24px" viewBox="0 0 24 24" version="1.1" xmlns="http://www.w3.org/2000/svg" xmlns:xlink="http://www.w3.org/1999/xlink">
    <!-- Generator: Sketch 61 (89581) - https://sketch.com -->
    <title>SVG/White/white/UI/help</title>
    <desc>Created with Sketch.</desc>
    <g id="white/UI/help" stroke="none" stroke-width="1" fill="none" fill-rule="evenodd">
        <rect id="Boundary" fill-opacity="0" fill="#FFFFFF" x="0" y="0" width="24" height="24"></rect>
        <path d="M14.5,1 L14.5,2.315 L14.7993449,2.39710176 C18.1705835,3.37818499 20.8063518,6.08638229 21.6849563,9.5 L23,9.5 L23,14.5 L21.6849563,14.5 C20.7805966,18.0136836 18.0145452,20.7799836 14.501004,21.6846978 L14.5,23 L9.5,23 L9.50070855,17.2723106 C8.28740032,16.6961316 7.30456082,15.7134656 6.72816039,14.5002829 L4.39837855,14.5 C5.18964559,16.9073831 7.09261689,18.8103544 9.5,19.6016215 L9.5,21.6849563 C5.98598177,20.7805105 3.21948949,18.0140182 2.31504371,14.5 L1,14.5 L1,9.5 L2.31504371,9.5 C3.21948949,5.98598177 5.98598177,3.21948949 9.5,2.31504371 L9.5,4.39837855 C7.09261689,5.18964559 5.18964559,7.09261689 4.39837855,9.5 L6.72768944,9.50070855 C7.30402537,8.28706981 8.28706981,7.30402537 9.50070855,6.72768944 L9.5,1 L14.5,1 Z M12.5,18 L11.5,18 L11.5,21 L12.5,21 L12.5,18 Z M19.6016215,14.5 L17.2718396,14.5002829 C16.6955962,15.7131351 15.7131351,16.6955962 14.5002829,17.2718396 L14.5,19.601 L14.7653804,19.5091588 C17.046819,18.6687016 18.8396606,16.8182208 19.6016215,14.5 Z M13.1705901,8.00001601 L10.8294099,8.00001601 C9.46943127,8.3973514 8.3973514,9.46943127 8.00001601,10.8294099 L8.00001601,13.1705901 C8.39764228,14.5315643 9.47100129,15.6042181 10.8323972,16.0008555 L13.1676028,16.0008555 C14.5299946,15.603928 15.603928,14.5299946 16.0008555,13.1676028 L16.0008555,10.8323972 C15.6042181,9.47100129 14.5315643,8.39764228 13.1705901,8.00001601 Z M21,11.5 L18,11.5 L18,12.5 L21,12.5 L21,11.5 Z M6,11.5 L3,11.5 L3,12.5 L6,12.5 L6,11.5 Z M14.5010056,4.39870913 L14.5002829,6.72816039 C15.7134656,7.30456082 16.6961316,8.28740032 17.2723106,9.50070855 L19.6016215,9.5 C18.8104646,7.09295209 16.907913,5.19017553 14.5010056,4.39870913 Z M12.5,3 L11.5,3 L11.5,6 L12.5,6 L12.5,3 Z" id="Shape" fill="#FFFFFF" fill-rule="nonzero"></path>
    </g>
</svg>