<?xml version="1.0" encoding="UTF-8"?>
<svg width="24px" height="24px" viewBox="0 0 24 24" version="1.1" xmlns="http://www.w3.org/2000/svg" xmlns:xlink="http://www.w3.org/1999/xlink">
    <!-- Generator: Sketch 61 (89581) - https://sketch.com -->
    <title>SVG/White/white/UI/link</title>
    <desc>Created with Sketch.</desc>
    <g id="white/UI/link" stroke="none" stroke-width="1" fill="none" fill-rule="evenodd">
        <rect id="Boundary" fill-opacity="0" fill="#FFFFFF" x="0" y="0" width="24" height="24"></rect>
        <path d="M9,11 L7,11 L7,6 C7,3.23857625 9.23857625,1 12,1 C14.7614237,1 17,3.23857625 17,6 L17,11 L15,11 L15,6 C15,4.34314575 13.6568542,3 12,3 C10.3431458,3 9,4.34314575 9,6 L9,11 Z M9,13 L9,18 C9,19.6568542 10.3431458,21 12,21 C13.6568542,21 15,19.6568542 15,18 L15,13 L17,13 L17,18 C17,20.7614237 14.7614237,23 12,23 C9.23857625,23 7,20.7614237 7,18 L7,13 L9,13 Z M11,7 L13,7 L13,17 L11,17 L11,7 Z" id="Shape" fill="#FFFFFF" fill-rule="nonzero" transform="translate(12.000000, 12.000000) rotate(45.000000) translate(-12.000000, -12.000000) "></path>
    </g>
</svg>