<?xml version="1.0" encoding="UTF-8"?>
<svg width="24px" height="24px" viewBox="0 0 24 24" version="1.1" xmlns="http://www.w3.org/2000/svg" xmlns:xlink="http://www.w3.org/1999/xlink">
    <!-- Generator: Sketch 61 (89581) - https://sketch.com -->
    <title>SVG/White/white/UI/money 2</title>
    <desc>Created with Sketch.</desc>
    <g id="white/UI/money-2" stroke="none" stroke-width="1" fill="none" fill-rule="evenodd">
        <rect id="Boundary" fill-opacity="0" fill="#FFFFFF" x="0" y="0" width="24" height="24"></rect>
        <path d="M12,16 C13.1045695,16 14,16.8954305 14,18 C14,19.1045695 13.1045695,20 12,20 C10.8954305,20 10,19.1045695 10,18 C10,16.8954305 10.8954305,16 12,16 Z M16.2426407,13.7573593 L14.8284271,15.1715729 C13.26633,13.6094757 10.73367,13.6094757 9.17157288,15.1715729 L7.75735931,13.7573593 C10.1005051,11.4142136 13.8994949,11.4142136 16.2426407,13.7573593 Z M19.0710678,10.9289322 L17.6568542,12.3431458 C14.5326599,9.21895142 9.46734008,9.21895142 6.34314575,12.3431458 L4.92893219,10.9289322 C8.83417511,7.02368927 15.1658249,7.02368927 19.0710678,10.9289322 Z M21.8994949,8.10050506 L20.4852814,9.51471863 C15.7989899,4.82842712 8.20101013,4.82842712 3.51471863,9.51471863 L2.10050506,8.10050506 C7.56784515,2.63316498 16.4321549,2.63316498 21.8994949,8.10050506 Z" id="Shape" fill="#FFFFFF" fill-rule="nonzero"></path>
    </g>
</svg>