<?xml version="1.0" encoding="UTF-8"?>
<svg width="24px" height="24px" viewBox="0 0 24 24" version="1.1" xmlns="http://www.w3.org/2000/svg" xmlns:xlink="http://www.w3.org/1999/xlink">
    <!-- Generator: Sketch 61 (89581) - https://sketch.com -->
    <title>SVG/White/white/UI/no-view</title>
    <desc>Created with Sketch.</desc>
    <g id="white/UI/no-view" stroke="none" stroke-width="1" fill="none" fill-rule="evenodd">
        <rect id="Boundary" fill-opacity="0" fill="#FFFFFF" x="0" y="0" width="24" height="24"></rect>
        <path d="M9.00456983,12.167003 C9.00153656,12.1117208 9,12.0560398 9,12 C9,10.3431458 10.3431458,9 12,9 C12.0560398,9 12.1117208,9.00153656 12.167003,9.00456983 L13.9350255,7.23654741 C13.3127527,7.08167632 12.6641361,7 12,7 C8.70336609,7 5.78911767,9.01244253 4.58114577,12 C5.00554518,13.0496251 5.64055764,13.9788876 6.42877071,14.7428022 L9.00456983,12.167003 L9.00456983,12.167003 Z M5.01442419,16.1571487 C3.9367089,15.1061196 3.09008872,13.8067573 2.56927724,12.3332461 L2.45149165,12 L2.56927724,11.6667539 C3.97011053,7.70343197 7.72802474,5 12,5 C13.2342016,5 14.4254961,5.22564734 15.5294406,5.64213223 L17.6568542,3.51471863 L19.0710678,4.92893219 L4.92893219,19.0710678 L3.51471863,17.6568542 L5.01442419,16.1571487 L5.01442419,16.1571487 Z M11.832997,14.9954302 L14.9954302,11.832997 C14.9984634,11.8882792 15,11.9439602 15,12 C15,13.6568542 13.6568542,15 12,15 C11.9439602,15 11.8882792,14.9984634 11.832997,14.9954302 L11.832997,14.9954302 Z M17.5712293,9.25719783 L18.9855758,7.84285131 C20.0632911,8.89388042 20.9099113,10.1932427 21.4307228,11.6667539 L21.5485084,12 L21.4307228,12.3332461 C20.0298895,16.296568 16.2719753,19 12,19 C10.7657984,19 9.57450385,18.7743527 8.47055935,18.3578678 L10.0649745,16.7634526 C10.6872473,16.9183237 11.3358639,17 12,17 C15.2966339,17 18.2108823,14.9875575 19.4188542,12 C18.9944548,10.9503749 18.3594424,10.0211124 17.5712293,9.25719783 L17.5712293,9.25719783 Z" id="Shape" fill="#FFFFFF" fill-rule="nonzero"></path>
    </g>
</svg>