<?xml version="1.0" encoding="UTF-8"?>
<svg width="24px" height="24px" viewBox="0 0 24 24" version="1.1" xmlns="http://www.w3.org/2000/svg" xmlns:xlink="http://www.w3.org/1999/xlink">
    <!-- Generator: Sketch 61 (89581) - https://sketch.com -->
    <title>SVG/White/white/UI/share</title>
    <desc>Created with Sketch.</desc>
    <g id="white/UI/share" stroke="none" stroke-width="1" fill="none" fill-rule="evenodd">
        <rect id="Boundary" fill-opacity="0" fill="#FFFFFF" x="0" y="0" width="24" height="24"></rect>
        <path d="M8.71250789,8.46351514 C8.22691599,8.80170663 7.63661494,9 7,9 C5.34314575,9 4,7.65685425 4,6 C4,4.34314575 5.34314575,3 7,3 C8.65685425,3 10,4.34314575 10,6 C10,6.2880377 9.95940681,6.56659436 9.88362915,6.83026124 L14.9862604,9.77626677 C15.518632,9.29387408 16.224997,9 17,9 C18.6568542,9 20,10.3431458 20,12 C20,13.6568542 18.6568542,15 17,15 C16.3497038,15 15.7477335,14.7930921 15.2563307,14.441518 L9.9585529,17.5001915 C9.98581175,17.6627354 10,17.8297108 10,18 C10,19.6568542 8.65685425,21 7,21 C5.34314575,21 4,19.6568542 4,18 C4,16.3431458 5.34314575,15 7,15 C7.76189765,15 8.45745905,15.2840193 8.98658355,15.7519572 L14.1067053,12.7958535 C14.0371467,12.5424015 14,12.2755388 14,12 C14,11.8424595 14.0121434,11.6877552 14.0355451,11.5367721 L8.71250789,8.46351514 Z M17,13 C17.5522847,13 18,12.5522847 18,12 C18,11.4477153 17.5522847,11 17,11 C16.4477153,11 16,11.4477153 16,12 C16,12.5522847 16.4477153,13 17,13 Z M7,19 C7.55228475,19 8,18.5522847 8,18 C8,17.4477153 7.55228475,17 7,17 C6.44771525,17 6,17.4477153 6,18 C6,18.5522847 6.44771525,19 7,19 Z M7,7 C7.55228475,7 8,6.55228475 8,6 C8,5.44771525 7.55228475,5 7,5 C6.44771525,5 6,5.44771525 6,6 C6,6.55228475 6.44771525,7 7,7 Z" id="Shape" fill="#FFFFFF" fill-rule="nonzero"></path>
    </g>
</svg>