<?xml version="1.0" encoding="UTF-8"?>
<svg width="24px" height="24px" viewBox="0 0 24 24" version="1.1" xmlns="http://www.w3.org/2000/svg" xmlns:xlink="http://www.w3.org/1999/xlink">
    <!-- Generator: Sketch 61 (89581) - https://sketch.com -->
    <title>SVG/White/white/maps/location 3</title>
    <desc>Created with Sketch.</desc>
    <g id="white/maps/location-3" stroke="none" stroke-width="1" fill="none" fill-rule="evenodd">
        <rect id="Boundary" fill-opacity="0" fill="#FFFFFF" x="0" y="0" width="24" height="24"></rect>
        <path d="M13,2 L13.0006955,3.05500569 C17.1720858,3.51645693 20.4841085,6.82877572 20.9451047,11.0003032 L22,11 L22,13 L20.9449943,13.0006955 C20.4835799,17.1717529 17.1717529,20.4835799 13.0006955,20.9449943 L13,22 L11,22 L11.0003032,20.9451047 C6.82877572,20.4841085 3.51645693,17.1720858 3.05500569,13.0006955 L2,13 L2,11 L3.05489527,11.0003032 C3.51592828,6.82844282 6.82844282,3.51592828 11.0003032,3.05489527 L11,2 L13,2 Z M13.0010101,5.07103341 L13,6 L11,6 L10.9999918,5.07089004 C7.93430725,5.50940557 5.50940557,7.93430725 5.07089004,10.9999918 L6,11 L6,13 L5.07103341,13.0010101 C5.50993388,16.066221 7.9346412,18.4906422 10.9999918,18.92911 L11,18 L13,18 L13.0010101,18.9289666 C16.0658871,18.4901139 18.4901139,16.0658871 18.9289666,13.0010101 L18,13 L18,11 L18.92911,10.9999918 C18.4906422,7.9346412 16.066221,5.50993388 13.0010101,5.07103341 Z M12,8 C14.209139,8 16,9.790861 16,12 C16,14.209139 14.209139,16 12,16 C9.790861,16 8,14.209139 8,12 C8,9.790861 9.790861,8 12,8 Z M12,10 C10.8954305,10 10,10.8954305 10,12 C10,13.1045695 10.8954305,14 12,14 C13.1045695,14 14,13.1045695 14,12 C14,10.8954305 13.1045695,10 12,10 Z" id="Shape" fill="#FFFFFF" fill-rule="nonzero"></path>
    </g>
</svg>