<?xml version="1.0" encoding="UTF-8"?>
<svg width="24px" height="24px" viewBox="0 0 24 24" version="1.1" xmlns="http://www.w3.org/2000/svg" xmlns:xlink="http://www.w3.org/1999/xlink">
    <!-- Generator: Sketch 61 (89581) - https://sketch.com -->
    <title>SVG/White/black/maps/location</title>
    <desc>Created with Sketch.</desc>
    <g id="black/maps/location" stroke="none" stroke-width="1" fill="none" fill-rule="evenodd">
        <rect id="Boundary" fill-opacity="0" fill="#FFFFFF" x="0" y="0" width="24" height="24"></rect>
        <path d="M12,2 C15.8659932,2 19,5.13400675 19,9 C19,13.0431699 16.0477216,18.8387673 12.4961389,20.8682431 L12,21.1517511 L11.5038611,20.8682431 C7.95227841,18.8387673 5,13.0431699 5,9 C5,5.13400675 8.13400675,2 12,2 Z M12,4 C9.23857625,4 7,6.23857625 7,9 C7,12.1690398 9.31537042,16.8969287 12,18.8128548 C14.6846296,16.8969287 17,12.1690398 17,9 C17,6.23857625 14.7614237,4 12,4 Z M12,6 C13.6568542,6 15,7.34314575 15,9 C15,10.6568542 13.6568542,12 12,12 C10.3431458,12 9,10.6568542 9,9 C9,7.34314575 10.3431458,6 12,6 Z M12,8 C11.4477153,8 11,8.44771525 11,9 C11,9.55228475 11.4477153,10 12,10 C12.5522847,10 13,9.55228475 13,9 C13,8.44771525 12.5522847,8 12,8 Z" id="Shape" fill="#000000" fill-rule="nonzero"></path>
    </g>
</svg>