<?xml version="1.0" encoding="UTF-8"?>
<svg width="24px" height="24px" viewBox="0 0 24 24" version="1.1" xmlns="http://www.w3.org/2000/svg" xmlns:xlink="http://www.w3.org/1999/xlink">
    <!-- Generator: Sketch 61 (89581) - https://sketch.com -->
    <title>SVG/White/white/document/grid-menu</title>
    <desc>Created with Sketch.</desc>
    <g id="white/document/grid-menu" stroke="none" stroke-width="1" fill="none" fill-rule="evenodd">
        <rect id="Boundary" fill-opacity="0" fill="#FFFFFF" x="0" y="0" width="24" height="24"></rect>
        <path d="M5.5,5.5 L5.5,8.5 L8.5,8.5 L8.5,5.5 L5.5,5.5 Z M10.5,3.5 L10.5,10.5 L3.5,10.5 L3.5,3.5 L10.5,3.5 Z M15.5,5.5 L15.5,8.5 L18.5,8.5 L18.5,5.5 L15.5,5.5 Z M20.5,3.5 L20.5,10.5 L13.5,10.5 L13.5,3.5 L20.5,3.5 Z M5.5,15.5 L5.5,18.5 L8.5,18.5 L8.5,15.5 L5.5,15.5 Z M10.5,13.5 L10.5,20.5 L3.5,20.5 L3.5,13.5 L10.5,13.5 Z M15.5,15.5 L15.5,18.5 L18.5,18.5 L18.5,15.5 L15.5,15.5 Z M20.5,13.5 L20.5,20.5 L13.5,20.5 L13.5,13.5 L20.5,13.5 Z" id="Shape" fill="#FFFFFF" fill-rule="nonzero"></path>
    </g>
</svg>