<?xml version="1.0" encoding="UTF-8"?>
<svg width="24px" height="24px" viewBox="0 0 24 24" version="1.1" xmlns="http://www.w3.org/2000/svg" xmlns:xlink="http://www.w3.org/1999/xlink">
    <!-- Generator: Sketch 61 (89581) - https://sketch.com -->
    <title>SVG/White/white/document/group</title>
    <desc>Created with Sketch.</desc>
    <g id="white/document/group" stroke="none" stroke-width="1" fill="none" fill-rule="evenodd">
        <rect id="Boundary" fill-opacity="0" fill="#FFFFFF" x="0" y="0" width="24" height="24"></rect>
        <path d="M9,3 L9,5 L15,5 L15,3 L21,3 L21,9 L19,9 L19,15 L21,15 L21,21 L15,21 L15,19 L9,19 L9,21 L3,21 L3,15 L5,15 L5,9 L3,9 L3,3 L9,3 Z M19,17 L17,17 L17,19 L19,19 L19,17 Z M7,17 L5,17 L5,19 L7,19 L7,17 Z M15,7 L9,7 L9,9 L7,9 L7,15 L9,15 L9,17 L15,17 L15,15 L17,15 L17,9 L15,9 L15,7 Z M7,5 L5,5 L5,7 L7,7 L7,5 Z M19,5 L17,5 L17,7 L19,7 L19,5 Z" id="Shape" fill="#FFFFFF" fill-rule="nonzero"></path>
    </g>
</svg>