<?xml version="1.0" encoding="UTF-8"?>
<svg width="24px" height="24px" viewBox="0 0 24 24" version="1.1" xmlns="http://www.w3.org/2000/svg" xmlns:xlink="http://www.w3.org/1999/xlink">
    <!-- Generator: Sketch 61 (89581) - https://sketch.com -->
    <title>SVG/White/white/document/paste-2</title>
    <desc>Created with Sketch.</desc>
    <g id="white/document/paste-2" stroke="none" stroke-width="1" fill="none" fill-rule="evenodd">
        <rect id="Boundary" fill-opacity="0" fill="#FFFFFF" x="0" y="0" width="24" height="24"></rect>
        <path d="M16,3 L16,4 L19,4 L19,21 L5,21 L5,4 L8,4 L8,3 L16,3 Z M16,8 L8,8 L8,6 L7,6 L7,19 L17,19 L17,6 L16,6 L16,8 Z M15,14 L15,16 L9,16 L9,14 L15,14 Z M15,10 L15,12 L9,12 L9,10 L15,10 Z M14,5 L10,5 L10,6 L14,6 L14,5 Z" id="Shape" fill="#FFFFFF" fill-rule="nonzero"></path>
    </g>
</svg>