<?xml version="1.0" encoding="UTF-8"?>
<svg width="24px" height="24px" viewBox="0 0 24 24" version="1.1" xmlns="http://www.w3.org/2000/svg" xmlns:xlink="http://www.w3.org/1999/xlink">
    <!-- Generator: Sketch 61 (89581) - https://sketch.com -->
    <title>SVG/White/white/document/paste</title>
    <desc>Created with Sketch.</desc>
    <g id="white/document/paste" stroke="none" stroke-width="1" fill="none" fill-rule="evenodd">
        <rect id="Boundary" fill-opacity="0" fill="#FFFFFF" x="0" y="0" width="24" height="24"></rect>
        <path d="M20,7 L20,21 L8,21 L8,7 L20,7 Z M18,9 L10,9 L10,19 L18,19 L18,9 Z M8,4 L8,3 L14,3 L14,4 L17,4 L17,6 L7,6 L7,18 L5,18 L5,4 L8,4 Z M16,15 L16,17 L12,17 L12,15 L16,15 Z M16,11 L16,13 L12,13 L12,11 L16,11 Z" id="Shape" fill="#FFFFFF" fill-rule="nonzero"></path>
    </g>
</svg>