<?xml version="1.0" encoding="UTF-8"?>
<svg width="24px" height="24px" viewBox="0 0 24 24" version="1.1" xmlns="http://www.w3.org/2000/svg" xmlns:xlink="http://www.w3.org/1999/xlink">
    <!-- Generator: Sketch 61 (89581) - https://sketch.com -->
    <title>SVG/White/white/document/print</title>
    <desc>Created with Sketch.</desc>
    <g id="white/document/print" stroke="none" stroke-width="1" fill="none" fill-rule="evenodd">
        <rect id="Boundary" fill-opacity="0" fill="#FFFFFF" x="0" y="0" width="24" height="24"></rect>
        <path d="M17,4 L17,7 L22,7 L22,18 L17,18 L17,20 L7,20 L7,18 L2,18 L2,7 L7,7 L7,4 L17,4 Z M15,16 L9,16 L9,18 L15,18 L15,16 Z M20,9 L4,9 L4,16 L7,16 L7,14 L17,14 L17,16 L20,16 L20,9 Z M7,10 L7,12 L5,12 L5,10 L7,10 Z M15,6 L9,6 L9,7 L15,7 L15,6 Z" id="Shape" fill="#FFFFFF" fill-rule="nonzero"></path>
    </g>
</svg>