<?xml version="1.0" encoding="UTF-8"?>
<svg width="24px" height="24px" viewBox="0 0 24 24" version="1.1" xmlns="http://www.w3.org/2000/svg" xmlns:xlink="http://www.w3.org/1999/xlink">
    <!-- Generator: Sketch 61 (89581) - https://sketch.com -->
    <title>SVG/White/white/document/save</title>
    <desc>Created with Sketch.</desc>
    <g id="white/document/save" stroke="none" stroke-width="1" fill="none" fill-rule="evenodd">
        <rect id="Boundary" fill-opacity="0" fill="#FFFFFF" x="0" y="0" width="24" height="24"></rect>
        <path d="M17,3 L20,6 L20,21 L4,21 L4,3 L17,3 Z M8,5 L6,5 L6,19 L18,19 L18,7 L16,5 L15,5 L15,9 L8,9 L8,5 Z M12,10 C13.6568542,10 15,11.3431458 15,13 C15,14.6568542 13.6568542,16 12,16 C10.3431458,16 9,14.6568542 9,13 C9,11.3431458 10.3431458,10 12,10 Z M12,12 C11.4477153,12 11,12.4477153 11,13 C11,13.5522847 11.4477153,14 12,14 C12.5522847,14 13,13.5522847 13,13 C13,12.4477153 12.5522847,12 12,12 Z M13,5 L10,5 L10,7 L13,7 L13,5 Z" id="Shape" fill="#FFFFFF" fill-rule="nonzero"></path>
    </g>
</svg>