<?xml version="1.0" encoding="UTF-8"?>
<svg width="24px" height="24px" viewBox="0 0 24 24" version="1.1" xmlns="http://www.w3.org/2000/svg" xmlns:xlink="http://www.w3.org/1999/xlink">
    <!-- Generator: Sketch 61 (89581) - https://sketch.com -->
    <title>SVG/White/white/document/underline</title>
    <desc>Created with Sketch.</desc>
    <g id="white/document/underline" stroke="none" stroke-width="1" fill="none" fill-rule="evenodd">
        <rect id="Boundary" fill-opacity="0" fill="#FFFFFF" x="0" y="0" width="24" height="24"></rect>
        <path d="M18,18 L18,20 L6,20 L6,18 L18,18 Z M9,4 L9,6 L8,6 L8,11 C8,13.209139 9.790861,15 12,15 C14.209139,15 16,13.209139 16,11 L16,6 L15,6 L15,4 L19,4 L19,6 L18,6 L18,11 C18,14.3137085 15.3137085,17 12,17 C8.6862915,17 6,14.3137085 6,11 L6,6 L5,6 L5,4 L9,4 Z" id="Shape" fill="#FFFFFF" fill-rule="nonzero"></path>
    </g>
</svg>