<?xml version="1.0" encoding="UTF-8"?>
<svg width="24px" height="24px" viewBox="0 0 24 24" version="1.1" xmlns="http://www.w3.org/2000/svg" xmlns:xlink="http://www.w3.org/1999/xlink">
    <!-- Generator: Sketch 61 (89581) - https://sketch.com -->
    <title>SVG/White/white/document/vector</title>
    <desc>Created with Sketch.</desc>
    <g id="white/document/vector" stroke="none" stroke-width="1" fill="none" fill-rule="evenodd">
        <rect id="Boundary" fill-opacity="0" fill="#FFFFFF" x="0" y="0" width="24" height="24"></rect>
        <path d="M15,10 L9,10 L9,8 L8.999,8 L8.99980567,8.99977979 C7.7854695,9.91199508 7,11.3642694 7,13 L7,14 L9,14 L9,20 L3,20 L3,14 L5,14 L5,13 C5,11.0417834 5.80407989,9.27136972 7.10008088,8.00091775 L5.82897577,8.00090072 C5.41688515,9.16562257 4.30588222,10 3,10 C1.34314575,10 0,8.65685425 0,7 C0,5.34314575 1.34314575,4 3,4 C4.30625206,4 5.41751442,4.8348501 5.82932572,6.00008893 L9,6 L9,4 L15,4 L15,6 L18.1706743,6.00008893 C18.5824856,4.8348501 19.6937479,4 21,4 C22.6568542,4 24,5.34314575 24,7 C24,8.65685425 22.6568542,10 21,10 C19.6941178,10 18.5831148,9.16562257 18.1710242,8.00090072 L16.8994859,8.00049309 C18.1957409,9.27097518 19,11.0415652 19,13 L19,14 L21,14 L21,20 L15,20 L15,14 L17,14 L17,13 C17,11.3647208 16.2149639,9.91279657 15.0011995,9.00053506 L15.001,8 L15,8 L15,10 Z M7,16 L5,16 L5,18 L7,18 L7,16 Z M19,16 L17,16 L17,18 L19,18 L19,16 Z M3,6 C2.44771525,6 2,6.44771525 2,7 C2,7.55228475 2.44771525,8 3,8 C3.55228475,8 4,7.55228475 4,7 C4,6.44771525 3.55228475,6 3,6 Z M21,6 C20.4477153,6 20,6.44771525 20,7 C20,7.55228475 20.4477153,8 21,8 C21.5522847,8 22,7.55228475 22,7 C22,6.44771525 21.5522847,6 21,6 Z M13,6 L11,6 L11,8 L13,8 L13,6 Z" id="Shape" fill="#FFFFFF" fill-rule="nonzero"></path>
    </g>
</svg>