<?xml version="1.0" encoding="UTF-8"?>
<svg width="24px" height="24px" viewBox="0 0 24 24" version="1.1" xmlns="http://www.w3.org/2000/svg" xmlns:xlink="http://www.w3.org/1999/xlink">
    <!-- Generator: Sketch 61 (89581) - https://sketch.com -->
    <title>SVG/White/black/UI/chat</title>
    <desc>Created with Sketch.</desc>
    <g id="black/UI/chat" stroke="none" stroke-width="1" fill="none" fill-rule="evenodd">
        <rect id="Boundary" fill-opacity="0" fill="#FFFFFF" x="0" y="0" width="24" height="24"></rect>
        <path d="M12,18 C15.3137085,18 18,15.3137085 18,12 C18,8.6862915 15.3137085,6 12,6 C8.6862915,6 6,8.6862915 6,12 C6,13.4400948 6.50651332,14.7967273 7.41700401,15.8727506 L8.38922003,17.0217212 L7.73703418,18 L12,18 Z M5.89023806,17.1646429 C4.71101227,15.7710269 4,13.9685464 4,12 C4,7.581722 7.581722,4 12,4 C16.418278,4 20,7.581722 20,12 C20,16.418278 16.418278,20 12,20 L4,20 L5.89023806,17.1646429 Z" id="Shape" fill="#000000" fill-rule="nonzero"></path>
    </g>
</svg>