<?xml version="1.0" encoding="UTF-8"?>
<svg width="24px" height="24px" viewBox="0 0 24 24" version="1.1" xmlns="http://www.w3.org/2000/svg" xmlns:xlink="http://www.w3.org/1999/xlink">
    <!-- Generator: Sketch 61 (89581) - https://sketch.com -->
    <title>SVG/White/black/UI/phone</title>
    <desc>Created with Sketch.</desc>
    <g id="black/UI/phone" stroke="none" stroke-width="1" fill="none" fill-rule="evenodd">
        <rect id="Boundary" fill-opacity="0" fill="#FFFFFF" x="0" y="0" width="24" height="24"></rect>
        <path d="M5.76486749,6.2911023 C4.83599388,7.48536837 4.94177259,9.18441327 6.0116038,10.2542445 L13.7457555,17.9883962 C14.8155867,19.0582274 16.5146316,19.1640061 17.7088977,18.2351325 L20.3913902,16.1487495 L17.6568542,13.4142136 L16.2426407,14.8284271 C15.4615921,15.6094757 14.1952621,15.6094757 13.4142136,14.8284271 L9.17157288,10.5857864 C8.39052429,9.80473785 8.39052429,8.5384079 9.17157288,7.75735931 L10.5857864,6.34314575 L7.85125052,3.60860983 L5.76486749,6.2911023 Z M12,4.92893219 C12.7810486,5.70998077 12.7810486,6.97631073 12,7.75735931 L10.5857864,9.17157288 L14.8284271,13.4142136 L16.2426407,12 C17.0236893,11.2189514 18.2900192,11.2189514 19.0710678,12 L21.8056037,14.7345359 C22.5866523,15.5155845 22.5866523,16.7819145 21.8056037,17.562963 C21.7469633,17.6216034 21.6847324,17.6765398 21.6192714,17.7274539 L18.9367789,19.8138369 C16.9463355,21.3619596 14.114594,21.1856618 12.331542,19.4026098 L4.59739024,11.668458 C2.81433822,9.88540603 2.63804037,7.05366453 4.18616305,5.06322107 L6.27254609,2.38072861 C6.95068616,1.50883422 8.20723736,1.35176532 9.07913175,2.0299054 C9.14459277,2.08081952 9.20682368,2.13575587 9.26546408,2.19439627 L12,4.92893219 Z" id="Shape" fill="#000000" fill-rule="nonzero"></path>
    </g>
</svg>