<?xml version="1.0" encoding="UTF-8"?>
<svg width="24px" height="24px" viewBox="0 0 24 24" version="1.1" xmlns="http://www.w3.org/2000/svg" xmlns:xlink="http://www.w3.org/1999/xlink">
    <!-- Generator: Sketch 61 (89581) - https://sketch.com -->
    <title>SVG/White/black/UI/profile</title>
    <desc>Created with Sketch.</desc>
    <g id="black/UI/profile" stroke="none" stroke-width="1" fill="none" fill-rule="evenodd">
        <rect id="Boundary" fill-opacity="0" fill="#FFFFFF" x="0" y="0" width="24" height="24"></rect>
        <path d="M12,11 C13.6568542,11 15,9.65685425 15,8 C15,6.34314575 13.6568542,5 12,5 C10.3431458,5 9,6.34314575 9,8 C9,9.65685425 10.3431458,11 12,11 Z M17,14 C19.209139,14 21,15.790861 21,18 L21,21 L19,21 L19,18 C19,16.8954305 18.1045695,16 17,16 L7,16 C5.8954305,16 5,16.8954305 5,18 L5,21 L3,21 L3,18 C3,15.790861 4.790861,14 7,14 L17,14 Z M12,3 C14.7614237,3 17,5.23857625 17,8 C17,10.7614237 14.7614237,13 12,13 C9.23857625,13 7,10.7614237 7,8 C7,5.23857625 9.23857625,3 12,3 Z" id="Shape" fill="#000000" fill-rule="nonzero"></path>
    </g>
</svg>