<?xml version="1.0" encoding="UTF-8"?>
<svg width="24px" height="24px" viewBox="0 0 24 24" version="1.1" xmlns="http://www.w3.org/2000/svg" xmlns:xlink="http://www.w3.org/1999/xlink">
    <!-- Generator: Sketch 61 (89581) - https://sketch.com -->
    <title>SVG/White/black/UI/settings</title>
    <desc>Created with Sketch.</desc>
    <g id="black/UI/settings" stroke="none" stroke-width="1" fill="none" fill-rule="evenodd">
        <rect id="Boundary" fill-opacity="0" fill="#FFFFFF" x="0" y="0" width="24" height="24"></rect>
        <path d="M13.5649066,2.825 C13.9281024,2.82435459 14.2621464,3.10916024 14.3190126,3.46848774 L14.6338468,5.50336937 C14.6704246,5.51806764 14.7034634,5.53160328 14.7347016,5.54472948 L16.3905368,4.32617598 C16.6852195,4.11048932 17.1259667,4.14574907 17.3818965,4.40478898 L19.5962804,6.61918114 C19.8495533,6.87688633 19.8811096,7.31174268 19.6674517,7.60372437 L18.4497528,9.25838304 C18.4665945,9.29689539 18.4817083,9.33217275 18.4958197,9.36601707 L20.5321228,9.6810874 C20.8906161,9.73782788 21.175,10.0715958 21.175,10.4347877 L21.175,13.5667277 C21.1718899,13.9271843 20.8881631,14.2564414 20.531524,14.312891 L18.4958183,14.6278698 C18.4817007,14.6617292 18.4665845,14.6970125 18.4497549,14.7354967 L19.6677355,16.3905394 C19.8811096,16.6821521 19.8495531,17.1170113 19.5952117,17.3757738 L17.3826442,19.5883357 C17.1259679,19.8481421 16.6852139,19.8834039 16.3901717,19.667433 L14.7346969,18.4491533 C14.7034303,18.462291 14.6703798,18.4758315 14.633846,18.4905118 L14.3191969,20.5241794 C14.2658543,20.8858004 13.9307094,21.175 13.5652181,21.175 L10.4348202,21.175 C10.0692864,21.175 9.7341752,20.8858161 9.68098891,20.5253988 L9.36615528,18.4905117 C9.3296216,18.4758315 9.29657112,18.4622909 9.26530459,18.4491533 L7.60947117,19.6676962 C7.3147859,19.8834052 6.87400799,19.8481421 6.61810502,19.5890879 L4.40372623,17.3747007 C4.15044866,17.1170113 4.11889216,16.6821521 4.33255003,16.3901525 L5.55024664,14.7354966 C5.53341698,14.6970125 5.51830076,14.6617291 5.50418315,14.6278697 L3.46787654,14.312797 C3.11182906,14.25644 2.82808523,13.9271723 2.825,13.565221 L2.825,10.4351091 C2.82433416,10.0719004 3.10914273,9.73786216 3.46847718,9.68099367 L5.50418188,9.36601701 C5.51829321,9.3321727 5.53340704,9.29689534 5.55024869,9.258383 L4.33226921,7.60334168 C4.1188921,7.31174268 4.15044844,6.87688633 4.40479004,6.61810314 L6.61735485,4.40554373 C6.87400911,4.14574908 7.31478021,4.11048803 7.60983033,4.32644428 L9.26529997,5.54472947 C9.29653893,5.53160292 9.32957866,5.51806692 9.36615759,5.50336821 L9.68173421,3.46404925 C9.74157997,3.13370892 10.0725239,2.82459641 10.4348889,2.825 L13.5649066,2.825 Z M12.9136173,4.3489133 L11.0863841,4.3489133 L10.8096136,6.15632794 C10.7678384,6.43555238 10.5619837,6.67940099 10.2933661,6.76760575 C10.0284258,6.8539663 9.76944155,6.96209628 9.51237297,7.0929846 C9.25996242,7.22335237 8.9394611,7.19796609 8.71110758,7.02974165 L7.23024514,5.94454324 L5.94454447,7.23025172 L7.02895919,8.71003307 C7.19688447,8.93559505 7.22535242,9.25183819 7.09956012,9.50534066 C6.95796671,9.78348244 6.84901237,10.0375082 6.76758466,10.2872867 C6.68076756,10.5534098 6.44076246,10.7586803 6.16347391,10.8033547 L4.34891415,11.0859977 L4.34891415,12.9078872 L6.16437704,13.1906732 C6.44076246,13.2352044 6.68076756,13.4404749 6.7675959,13.7066325 C6.84902151,13.9564045 6.95799072,14.2104701 7.10036773,14.4901528 C7.22535265,14.7420387 7.19688459,15.0582838 7.02974291,15.2827926 L5.94454503,16.7636348 L7.23024477,18.049334 L8.71076408,16.9643876 C8.93949303,16.7959138 9.25997012,16.770526 9.51147128,16.9004299 C9.7694459,17.0317848 10.0284304,17.1399181 10.2937245,17.2263982 C10.5619695,17.3144759 10.7678099,17.5583125 10.8094546,17.8365074 L11.0921163,19.6510875 L12.9078855,19.6510875 L13.1903903,17.8375328 C13.2321931,17.5583028 13.4380225,17.3144707 13.7066298,17.2262828 C13.9715498,17.139919 14.2305365,17.0317847 14.4876209,16.9008963 C14.7400107,16.7705234 15.060534,16.7959138 15.2888939,16.9641352 L16.7697568,18.0493339 L18.0554568,16.7636346 L16.9710482,15.2838616 C16.8031039,15.0583007 16.7746427,14.7420512 16.9004483,14.4885326 C17.0419737,14.2105837 17.1509578,13.9564726 17.2324169,13.7065981 C17.319234,13.4404749 17.5592391,13.2352044 17.8365276,13.1905301 L19.6510876,12.907887 L19.6510876,11.0859975 L17.8356245,10.8032116 C17.5592391,10.7586803 17.319234,10.5534098 17.2324056,10.2872522 C17.150967,10.0374402 17.0419977,9.78336874 16.8996325,9.50373131 C16.7746429,9.25182576 16.8031041,8.93557817 16.9702586,8.71109411 L18.0554568,7.23025145 L16.7697563,5.94454321 L15.289248,7.0294815 C15.0605402,7.19796626 14.7400162,7.22335375 14.4885359,7.09344988 C14.2305408,6.96209632 13.9715544,6.85396543 13.7062788,6.76748908 C13.4380193,6.67940987 13.2321924,6.43557699 13.190478,6.15692309 L12.9136173,4.3489133 Z M12.0000008,7.71630281 C14.3588814,7.71630281 16.2836963,9.64111814 16.2836963,12.0000043 C16.2836963,14.3588684 14.3588722,16.283698 12.0000008,16.283698 C9.64114229,16.283698 7.71630519,14.3588618 7.71630519,12.0000043 C7.71630519,9.64112347 9.64113242,7.71630281 12.0000008,7.71630281 Z M12.0000008,9.24021529 C10.4688514,9.24021529 9.24021821,10.4688411 9.24021821,12.0000043 C9.24021821,13.531128 10.4688706,14.7597855 12.0000008,14.7597855 C13.5311309,14.7597855 14.7597833,13.531128 14.7597833,12.0000043 C14.7597833,10.4688411 13.5311501,9.24021529 12.0000008,9.24021529 Z" id="Shape" fill="#000000" fill-rule="nonzero"></path>
    </g>
</svg>