<?xml version="1.0" encoding="UTF-8"?>
<svg width="24px" height="24px" viewBox="0 0 24 24" version="1.1" xmlns="http://www.w3.org/2000/svg" xmlns:xlink="http://www.w3.org/1999/xlink">
    <!-- Generator: Sketch 61 (89581) - https://sketch.com -->
    <title>SVG/White/black/UI/support</title>
    <desc>Created with Sketch.</desc>
    <g id="black/UI/support" stroke="none" stroke-width="1" fill="none" fill-rule="evenodd">
        <rect id="Boundary" fill-opacity="0" fill="#FFFFFF" x="0" y="0" width="24" height="24"></rect>
        <path d="M18.9291111,8 L19,8 C20.6568542,8 22,9.34314575 22,11 L22,13 C22,14.6568542 20.6568542,16 19,16 L18.9291111,16 C18.4438815,19.3922941 15.5264719,22 12,22 C11.4477153,22 11,21.5522847 11,21 C11,20.4477153 11.4477153,20 12,20 C14.7614237,20 17,17.7614237 17,15 L17,9 C17,6.23857625 14.7614237,4 12,4 C9.23857625,4 7,6.23857625 7,9 L7,16 L5,16 C3.34314575,16 2,14.6568542 2,13 L2,11 C2,9.34314575 3.34314575,8 5,8 L5.07088886,8 C5.55611852,4.60770586 8.47352809,2 12,2 C15.5264719,2 18.4438815,4.60770586 18.9291111,8 Z M19,10 L19,14 C19.5522847,14 20,13.5522847 20,13 L20,11 C20,10.4477153 19.5522847,10 19,10 Z M5,10 C4.44771525,10 4,10.4477153 4,11 L4,13 C4,13.5522847 4.44771525,14 5,14 L5,10 Z M11.5,22 C10.6715729,22 10,21.3284271 10,20.5 C10,19.6715729 10.6715729,19 11.5,19 C12.3284271,19 13,19.6715729 13,20.5 L13,21 L12,22 L11.5,22 Z" id="Shape" fill="#000000" fill-rule="nonzero"></path>
    </g>
</svg>