<?xml version="1.0" encoding="UTF-8"?>
<svg width="24px" height="24px" viewBox="0 0 24 24" version="1.1" xmlns="http://www.w3.org/2000/svg" xmlns:xlink="http://www.w3.org/1999/xlink">
    <!-- Generator: Sketch 61 (89581) - https://sketch.com -->
    <title>SVG/White/black/document/bar-chart-2</title>
    <desc>Created with Sketch.</desc>
    <g id="black/document/bar-chart-2" stroke="none" stroke-width="1" fill="none" fill-rule="evenodd">
        <rect id="Boundary" fill-opacity="0" fill="#FFFFFF" x="0" y="0" width="24" height="24"></rect>
        <path d="M8,12 L8,21 L3,21 L3,12 L8,12 Z M14.5,8 L14.5,21 L9.5,21 L9.5,8 L14.5,8 Z M21,3 L21,21 L16,21 L16,3 L21,3 Z M6,14 L5,14 L5,19 L6,19 L6,14 Z M12.5,10 L11.5,10 L11.5,19 L12.5,19 L12.5,10 Z M19,5 L18,5 L18,19 L19,19 L19,5 Z" id="Shape" fill="#000000" fill-rule="nonzero"></path>
    </g>
</svg>