<?xml version="1.0" encoding="UTF-8"?>
<svg width="24px" height="24px" viewBox="0 0 24 24" version="1.1" xmlns="http://www.w3.org/2000/svg" xmlns:xlink="http://www.w3.org/1999/xlink">
    <!-- Generator: Sketch 61 (89581) - https://sketch.com -->
    <title>SVG/White/black/document/cut</title>
    <desc>Created with Sketch.</desc>
    <g id="black/document/cut" stroke="none" stroke-width="1" fill="none" fill-rule="evenodd">
        <rect id="Boundary" fill-opacity="0" fill="#FFFFFF" x="0" y="0" width="24" height="24"></rect>
        <path d="M10.5857864,12.267767 L3.51471863,5.19669914 L4.92893219,3.78248558 L12,10.8535534 L19.0710678,3.78248558 L20.4852814,5.19669914 L9.75797249,15.924008 C10.2906756,17.0391358 10.0952091,18.4151986 9.17157288,19.3388348 C8,20.5104076 6.10050506,20.5104076 4.92893219,19.3388348 C3.75735931,18.1672619 3.75735931,16.267767 4.92893219,15.0961941 C5.85256838,14.1725579 7.22863119,13.9770913 8.34375893,14.5097945 L10.5857864,12.267767 Z M6.34314575,17.9246212 C6.73367004,18.3151455 7.36683502,18.3151455 7.75735931,17.9246212 C8.1478836,17.5340969 8.1478836,16.9009319 7.75735931,16.5104076 C7.36683502,16.1198833 6.73367004,16.1198833 6.34314575,16.5104076 C5.95262146,16.9009319 5.95262146,17.5340969 6.34314575,17.9246212 Z M14.2420275,15.924008 L12.7071068,14.3890873 L14.1213203,12.9748737 L15.6562411,14.5097945 C16.7713688,13.9770913 18.1474316,14.1725579 19.0710678,15.0961941 C20.2426407,16.267767 20.2426407,18.1672619 19.0710678,19.3388348 C17.8994949,20.5104076 16,20.5104076 14.8284271,19.3388348 C13.9047909,18.4151986 13.7093244,17.0391358 14.2420275,15.924008 L14.2420275,15.924008 Z M17.6568542,17.9246212 C18.0473785,17.5340969 18.0473785,16.9009319 17.6568542,16.5104076 C17.26633,16.1198833 16.633165,16.1198833 16.2426407,16.5104076 C15.8521164,16.9009319 15.8521164,17.5340969 16.2426407,17.9246212 C16.633165,18.3151455 17.26633,18.3151455 17.6568542,17.9246212 Z" id="Shape" fill="#000000" fill-rule="nonzero"></path>
    </g>
</svg>