<?xml version="1.0" encoding="UTF-8"?>
<svg width="24px" height="24px" viewBox="0 0 24 24" version="1.1" xmlns="http://www.w3.org/2000/svg" xmlns:xlink="http://www.w3.org/1999/xlink">
    <!-- Generator: Sketch 61 (89581) - https://sketch.com -->
    <title>SVG/White/black/document/document-2</title>
    <desc>Created with Sketch.</desc>
    <g id="black/document/document-2" stroke="none" stroke-width="1" fill="none" fill-rule="evenodd">
        <rect id="Boundary" fill-opacity="0" fill="#FFFFFF" x="0" y="0" width="24" height="24"></rect>
        <path d="M19,21 L5,21 L5,3 L16,3 L19,6 L19,21 Z M15,5 L7,5 L7,19 L17,19 L17,7 L15,7 L15,9 L9,9 L9,7 L15,7 L15,5 Z M15,15 L15,17 L9,17 L9,15 L15,15 Z M15,11 L15,13 L9,13 L9,11 L15,11 Z" id="Shape" fill="#000000" fill-rule="nonzero"></path>
    </g>
</svg>