<?xml version="1.0" encoding="UTF-8"?>
<svg width="24px" height="24px" viewBox="0 0 24 24" version="1.1" xmlns="http://www.w3.org/2000/svg" xmlns:xlink="http://www.w3.org/1999/xlink">
    <!-- Generator: Sketch 61 (89581) - https://sketch.com -->
    <title>SVG/White/black/document/more</title>
    <desc>Created with Sketch.</desc>
    <g id="black/document/more" stroke="none" stroke-width="1" fill="none" fill-rule="evenodd">
        <rect id="Boundary" fill-opacity="0" fill="#FFFFFF" x="0" y="0" width="24" height="24"></rect>
        <path d="M4.5,14.5 C3.11928813,14.5 2,13.3807119 2,12 C2,10.6192881 3.11928813,9.5 4.5,9.5 C5.88071187,9.5 7,10.6192881 7,12 C7,13.3807119 5.88071187,14.5 4.5,14.5 Z M12,14.5 C10.6192881,14.5 9.5,13.3807119 9.5,12 C9.5,10.6192881 10.6192881,9.5 12,9.5 C13.3807119,9.5 14.5,10.6192881 14.5,12 C14.5,13.3807119 13.3807119,14.5 12,14.5 Z M19.5,14.5 C18.1192881,14.5 17,13.3807119 17,12 C17,10.6192881 18.1192881,9.5 19.5,9.5 C20.8807119,9.5 22,10.6192881 22,12 C22,13.3807119 20.8807119,14.5 19.5,14.5 Z" id="Shape" fill="#000000" fill-rule="nonzero"></path>
    </g>
</svg>