<?xml version="1.0" encoding="UTF-8"?>
<svg width="24px" height="24px" viewBox="0 0 24 24" version="1.1" xmlns="http://www.w3.org/2000/svg" xmlns:xlink="http://www.w3.org/1999/xlink">
    <!-- Generator: Sketch 61 (89581) - https://sketch.com -->
    <title>SVG/White/black/document/paragraph</title>
    <desc>Created with Sketch.</desc>
    <g id="black/document/paragraph" stroke="none" stroke-width="1" fill="none" fill-rule="evenodd">
        <rect id="Boundary" fill-opacity="0" fill="#FFFFFF" x="0" y="0" width="24" height="24"></rect>
        <path d="M12,20 L10,20 L10,14 L9,14 C6.23857625,14 4,11.7614237 4,9 C4,6.23857625 6.23857625,4 9,4 L18,4 L18,6 L16,6 L16,20 L14,20 L14,6 L12,6 L12,20 Z M10,6 L9,6 C7.34314575,6 6,7.34314575 6,9 C6,10.6568542 7.34314575,12 9,12 L10,12 L10,6 Z" id="Shape" fill="#000000" fill-rule="nonzero"></path>
    </g>
</svg>