<?xml version="1.0" encoding="UTF-8"?>
<svg width="24px" height="24px" viewBox="0 0 24 24" version="1.1" xmlns="http://www.w3.org/2000/svg" xmlns:xlink="http://www.w3.org/1999/xlink">
    <!-- Generator: Sketch 61 (89581) - https://sketch.com -->
    <title>SVG/White/black/document/quote</title>
    <desc>Created with Sketch.</desc>
    <g id="black/document/quote" stroke="none" stroke-width="1" fill="none" fill-rule="evenodd">
        <rect id="Boundary" fill-opacity="0" fill="#FFFFFF" x="0" y="0" width="24" height="24"></rect>
        <path d="M7,4 C9.209139,4 11,5.790861 11,8 L11,16 C11,18.1421954 9.31603153,19.8910789 7.19964034,19.9951047 L7,20 L7,18 C8.0543618,18 8.91816512,17.1841222 8.99451426,16.1492623 L9,16 L9.00110922,15.4642293 C8.41251188,15.8049665 7.7290322,16 7,16 C4.790861,16 3,14.209139 3,12 L3,8 C3,5.790861 4.790861,4 7,4 Z M17,4 C19.209139,4 21,5.790861 21,8 L21,16 C21,18.1421954 19.3160315,19.8910789 17.1996403,19.9951047 L17,20 L17,18 C18.0543618,18 18.9181651,17.1841222 18.9945143,16.1492623 L19,16 L19.0011092,15.4642293 C18.4125119,15.8049665 17.7290322,16 17,16 C14.790861,16 13,14.209139 13,12 L13,8 C13,5.790861 14.790861,4 17,4 Z M7,6 C5.8954305,6 5,6.8954305 5,8 L5,12 C5,13.1045695 5.8954305,14 7,14 C8.1045695,14 9,13.1045695 9,12 L9,8 C9,6.8954305 8.1045695,6 7,6 Z M17,6 C15.8954305,6 15,6.8954305 15,8 L15,12 C15,13.1045695 15.8954305,14 17,14 C18.1045695,14 19,13.1045695 19,12 L19,8 C19,6.8954305 18.1045695,6 17,6 Z" id="Shape" fill="#000000" fill-rule="nonzero"></path>
    </g>
</svg>