<?xml version="1.0" encoding="UTF-8"?>
<svg width="24px" height="24px" viewBox="0 0 24 24" version="1.1" xmlns="http://www.w3.org/2000/svg" xmlns:xlink="http://www.w3.org/1999/xlink">
    <!-- Generator: Sketch 61 (89581) - https://sketch.com -->
    <title>SVG/White/black/multimedia/bright-2</title>
    <desc>Created with Sketch.</desc>
    <g id="black/multimedia/bright-2" stroke="none" stroke-width="1" fill="none" fill-rule="evenodd">
        <rect id="Boundary" fill-opacity="0" fill="#FFFFFF" x="0" y="0" width="24" height="24"></rect>
        <path d="M12,19 C12.5522847,19 13,19.4477153 13,20 L13,22 C13,22.5522847 12.5522847,23 12,23 C11.4477153,23 11,22.5522847 11,22 L11,20 C11,19.4477153 11.4477153,19 12,19 Z M7.05025253,16.9497475 C7.44077682,17.3402718 7.44077682,17.9734367 7.05025253,18.363961 L5.63603897,19.7781746 C5.24551468,20.1686989 4.6123497,20.1686989 4.22182541,19.7781746 C3.83130112,19.3876503 3.83130112,18.7544853 4.22182541,18.363961 L5.63603897,16.9497475 C6.02656326,16.5592232 6.65972824,16.5592232 7.05025253,16.9497475 Z M18.363961,16.9497475 L19.7781746,18.363961 C20.1686989,18.7544853 20.1686989,19.3876503 19.7781746,19.7781746 C19.3876503,20.1686989 18.7544853,20.1686989 18.363961,19.7781746 L16.9497475,18.363961 C16.5592232,17.9734367 16.5592232,17.3402718 16.9497475,16.9497475 C17.3402718,16.5592232 17.9734367,16.5592232 18.363961,16.9497475 Z M12,6 C15.3137085,6 18,8.6862915 18,12 C18,15.3137085 15.3137085,18 12,18 C8.6862915,18 6,15.3137085 6,12 C6,8.6862915 8.6862915,6 12,6 Z M12,8 C9.790861,8 8,9.790861 8,12 C8,14.209139 9.790861,16 12,16 C14.209139,16 16,14.209139 16,12 C16,9.790861 14.209139,8 12,8 Z M22,11 C22.5522847,11 23,11.4477153 23,12 C23,12.5522847 22.5522847,13 22,13 L20,13 C19.4477153,13 19,12.5522847 19,12 C19,11.4477153 19.4477153,11 20,11 L22,11 Z M4,11 C4.55228475,11 5,11.4477153 5,12 C5,12.5522847 4.55228475,13 4,13 L2,13 C1.44771525,13 1,12.5522847 1,12 C1,11.4477153 1.44771525,11 2,11 L4,11 Z M5.63603897,4.22182541 L7.05025253,5.63603897 C7.44077682,6.02656326 7.44077682,6.65972824 7.05025253,7.05025253 C6.65972824,7.44077682 6.02656326,7.44077682 5.63603897,7.05025253 L4.22182541,5.63603897 C3.83130112,5.24551468 3.83130112,4.6123497 4.22182541,4.22182541 C4.6123497,3.83130112 5.24551468,3.83130112 5.63603897,4.22182541 Z M19.7781746,4.22182541 C20.1686989,4.6123497 20.1686989,5.24551468 19.7781746,5.63603897 L18.363961,7.05025253 C17.9734367,7.44077682 17.3402718,7.44077682 16.9497475,7.05025253 C16.5592232,6.65972824 16.5592232,6.02656326 16.9497475,5.63603897 L18.363961,4.22182541 C18.7544853,3.83130112 19.3876503,3.83130112 19.7781746,4.22182541 Z M12,1 C12.5522847,1 13,1.44771525 13,2 L13,4 C13,4.55228475 12.5522847,5 12,5 C11.4477153,5 11,4.55228475 11,4 L11,2 C11,1.44771525 11.4477153,1 12,1 Z" id="Shape" fill="#000000" fill-rule="nonzero"></path>
    </g>
</svg>