<?xml version="1.0" encoding="UTF-8"?>
<svg width="24px" height="24px" viewBox="0 0 24 24" version="1.1" xmlns="http://www.w3.org/2000/svg" xmlns:xlink="http://www.w3.org/1999/xlink">
    <!-- Generator: Sketch 61 (89581) - https://sketch.com -->
    <title>SVG/White/black/multimedia/images</title>
    <desc>Created with Sketch.</desc>
    <g id="black/multimedia/images" stroke="none" stroke-width="1" fill="none" fill-rule="evenodd">
        <rect id="Boundary" fill-opacity="0" fill="#FFFFFF" x="0" y="0" width="24" height="24"></rect>
        <path d="M5,12.5 L8.03398794,14.775491 L13.9281573,10.8460447 L19,13.381966 L19,5 L5,5 L5,12.5 Z M3,3 L21,3 L21,21 L3,21 L3,3 Z M5,15 L5,19 L19,19 L19,15.618034 L14.0718427,13.1539553 L7.96601206,17.224509 L5,15 Z M9,11 C7.8954305,11 7,10.1045695 7,9 C7,7.8954305 7.8954305,7 9,7 C10.1045695,7 11,7.8954305 11,9 C11,10.1045695 10.1045695,11 9,11 Z" id="Shape" fill="#000000" fill-rule="nonzero"></path>
    </g>
</svg>