<?xml version="1.0" encoding="UTF-8"?>
<svg width="24px" height="24px" viewBox="0 0 24 24" version="1.1" xmlns="http://www.w3.org/2000/svg" xmlns:xlink="http://www.w3.org/1999/xlink">
    <!-- Generator: Sketch 61 (89581) - https://sketch.com -->
    <title>SVG/White/black/multimedia/mic-on</title>
    <desc>Created with Sketch.</desc>
    <g id="black/multimedia/mic-on" stroke="none" stroke-width="1" fill="none" fill-rule="evenodd">
        <rect id="Boundary" fill-opacity="0" fill="#FFFFFF" x="0" y="0" width="24" height="24"></rect>
        <path d="M7,12 C7,14.7614237 9.23857625,17 12,17 C14.7614237,17 17,14.7614237 17,12 L19,12 C19,15.5261219 16.3928118,18.4433024 13.0010101,18.9289666 L13,22 L11,22 L10.9999918,18.92911 C7.60770164,18.4438768 5,15.5264691 5,12 L7,12 Z M12,3 C14.209139,3 16,4.790861 16,7 L16,12 C16,14.209139 14.209139,16 12,16 C9.790861,16 8,14.209139 8,12 L8,7 C8,4.790861 9.790861,3 12,3 Z M12,5 C10.8954305,5 10,5.8954305 10,7 L10,12 C10,13.1045695 10.8954305,14 12,14 C13.1045695,14 14,13.1045695 14,12 L14,7 C14,5.8954305 13.1045695,5 12,5 Z" id="Shape" fill="#000000" fill-rule="nonzero"></path>
    </g>
</svg>