<?xml version="1.0" encoding="UTF-8"?>
<svg width="24px" height="24px" viewBox="0 0 24 24" version="1.1" xmlns="http://www.w3.org/2000/svg" xmlns:xlink="http://www.w3.org/1999/xlink">
    <!-- Generator: Sketch 61 (89581) - https://sketch.com -->
    <title>SVG/White/black/multimedia/music-2</title>
    <desc>Created with Sketch.</desc>
    <g id="black/multimedia/music-2" stroke="none" stroke-width="1" fill="none" fill-rule="evenodd">
        <rect id="Boundary" fill-opacity="0" fill="#FFFFFF" x="0" y="0" width="24" height="24"></rect>
        <path d="M18,3.5 L18,16 L17.9585702,16.0002947 C17.9858178,16.1628061 18,16.3297468 18,16.5 C18,18.1568542 16.6568542,19.5 15,19.5 C13.3431458,19.5 12,18.1568542 12,16.5 C12,14.8431458 13.3431458,13.5 15,13.5 C15.350972,13.5 15.6878673,13.5602698 16.0009007,13.6710242 L16,6.1 L10,7.9 L10,17 L9.9585702,17.0002947 C9.98581775,17.1628061 10,17.3297468 10,17.5 C10,19.1568542 8.65685425,20.5 7,20.5 C5.34314575,20.5 4,19.1568542 4,17.5 C4,15.8431458 5.34314575,14.5 7,14.5 C7.35097203,14.5 7.6878673,14.5602698 8.00090072,14.6710242 L8,6.5 L18,3.5 Z M7,16.5 C6.44771525,16.5 6,16.9477153 6,17.5 C6,18.0522847 6.44771525,18.5 7,18.5 C7.55228475,18.5 8,18.0522847 8,17.5 C8,16.9477153 7.55228475,16.5 7,16.5 Z M15,15.5 C14.4477153,15.5 14,15.9477153 14,16.5 C14,17.0522847 14.4477153,17.5 15,17.5 C15.5522847,17.5 16,17.0522847 16,16.5 C16,15.9477153 15.5522847,15.5 15,15.5 Z" id="Shape" fill="#000000" fill-rule="nonzero"></path>
    </g>
</svg>