<?xml version="1.0" encoding="UTF-8"?>
<svg width="24px" height="24px" viewBox="0 0 24 24" version="1.1" xmlns="http://www.w3.org/2000/svg" xmlns:xlink="http://www.w3.org/1999/xlink">
    <!-- Generator: Sketch 61 (89581) - https://sketch.com -->
    <title>SVG/White/black/e-commerce/add-to-cart</title>
    <desc>Created with Sketch.</desc>
    <g id="black/e-commerce/add-to-cart" stroke="none" stroke-width="1" fill="none" fill-rule="evenodd">
        <rect id="Boundary" fill-opacity="0" fill="#FFFFFF" x="0" y="0" width="24" height="24"></rect>
        <path d="M9,17 C10.1045695,17 11,17.8954305 11,19 C11,20.1045695 10.1045695,21 9,21 C7.8954305,21 7,20.1045695 7,19 C7,17.8954305 7.8954305,17 9,17 Z M17,17 C18.1045695,17 19,17.8954305 19,19 C19,20.1045695 18.1045695,21 17,21 C15.8954305,21 15,20.1045695 15,19 C15,17.8954305 15.8954305,17 17,17 Z M6.78077641,5 L8.78077641,13 L17.2192236,13 L18.7192236,7 L18,7 L18,5 L21.2807764,5 L18.7807764,15 L7.21922359,15 L5.21922359,7 L3,7 L3,5 L6.78077641,5 Z M14,5 L14,7 L16,7 L16,9 L14,9 L14,11 L12,11 L12,9 L10,9 L10,7 L12,7 L12,5 L14,5 Z" id="Shape" fill="#000000" fill-rule="nonzero"></path>
    </g>
</svg>