<?xml version="1.0" encoding="UTF-8"?>
<svg width="24px" height="24px" viewBox="0 0 24 24" version="1.1" xmlns="http://www.w3.org/2000/svg" xmlns:xlink="http://www.w3.org/1999/xlink">
    <!-- Generator: Sketch 61 (89581) - https://sketch.com -->
    <title>SVG/White/black/e-commerce/credit-card</title>
    <desc>Created with Sketch.</desc>
    <g id="black/e-commerce/credit-card" stroke="none" stroke-width="1" fill="none" fill-rule="evenodd">
        <rect id="Boundary" fill-opacity="0" fill="#FFFFFF" x="0" y="0" width="24" height="24"></rect>
        <path d="M4,9 L20,9 L20,7 L4,7 L4,9 Z M4,9 L4,10 L12,10 L4,10 L4,11 L4,9 Z M4,11 L4,17 L20,17 L20,11 L4,11 Z M20,11 L20,10 L12,10 L20,10 L20,9 L20,11 Z M4,5 L20,5 C21.1045695,5 22,5.8954305 22,7 L22,17 C22,18.1045695 21.1045695,19 20,19 L4,19 C2.8954305,19 2,18.1045695 2,17 L2,7 C2,5.8954305 2.8954305,5 4,5 Z M17.5,16 C16.6715729,16 16,15.3284271 16,14.5 C16,13.6715729 16.6715729,13 17.5,13 C18.3284271,13 19,13.6715729 19,14.5 C19,15.3284271 18.3284271,16 17.5,16 Z" id="Shape" fill="#000000" fill-rule="nonzero"></path>
    </g>
</svg>