<?xml version="1.0" encoding="UTF-8"?>
<svg width="24px" height="24px" viewBox="0 0 24 24" version="1.1" xmlns="http://www.w3.org/2000/svg" xmlns:xlink="http://www.w3.org/1999/xlink">
    <!-- Generator: Sketch 61 (89581) - https://sketch.com -->
    <title>SVG/White/black/e-commerce/store</title>
    <desc>Created with Sketch.</desc>
    <g id="black/e-commerce/store" stroke="none" stroke-width="1" fill="none" fill-rule="evenodd">
        <rect id="Boundary" fill-opacity="0" fill="#FFFFFF" x="0" y="0" width="24" height="24"></rect>
        <path d="M22,10 L22,12 L20,12 L20,20 L13,20 L13,16 L11,16 L11,20 L4,20 L4,12 L2,12 L2,10 L22,10 Z M18,12 L6,12 L6,18 L9,18 L9,14 L15,14 L15,18 L18,18 L18,12 Z M18,3 L21,9 L3,9 L6,3 L18,3 Z M16.763932,5 L7.23606798,5 L6.23606798,7 L17.763932,7 L16.763932,5 Z" id="Shape" fill="#000000" fill-rule="nonzero"></path>
    </g>
</svg>