<?xml version="1.0" encoding="UTF-8"?>
<svg width="24px" height="24px" viewBox="0 0 24 24" version="1.1" xmlns="http://www.w3.org/2000/svg" xmlns:xlink="http://www.w3.org/1999/xlink">
    <!-- Generator: Sketch 61 (89581) - https://sketch.com -->
    <title>SVG/White/black/symbol/divide</title>
    <desc>Created with Sketch.</desc>
    <g id="black/symbol/divide" stroke="none" stroke-width="1" fill="none" fill-rule="evenodd">
        <rect id="Boundary" fill-opacity="0" fill="#FFFFFF" x="0" y="0" width="24" height="24"></rect>
        <path d="M12,15 C13.1045695,15 14,15.8954305 14,17 C14,18.1045695 13.1045695,19 12,19 C10.8954305,19 10,18.1045695 10,17 C10,15.8954305 10.8954305,15 12,15 Z M19,11 L19,13 L5,13 L5,11 L19,11 Z M12,5 C13.1045695,5 14,5.8954305 14,7 C14,8.1045695 13.1045695,9 12,9 C10.8954305,9 10,8.1045695 10,7 C10,5.8954305 10.8954305,5 12,5 Z" id="Shape" fill="#000000" fill-rule="nonzero"></path>
    </g>
</svg>