<?xml version="1.0" encoding="UTF-8"?>
<svg width="24px" height="24px" viewBox="0 0 24 24" version="1.1" xmlns="http://www.w3.org/2000/svg" xmlns:xlink="http://www.w3.org/1999/xlink">
    <!-- Generator: Sketch 61 (89581) - https://sketch.com -->
    <title>SVG/White/white/e-commerce/coupon</title>
    <desc>Created with Sketch.</desc>
    <g id="white/e-commerce/coupon" stroke="none" stroke-width="1" fill="none" fill-rule="evenodd">
        <rect id="Boundary" fill-opacity="0" fill="#FFFFFF" x="0" y="0" width="24" height="24"></rect>
        <path d="M11.4393398,19.6013979 L20.1013979,10.9393398 L18.6374249,9.47536688 C17.6500591,9.93559705 16.4234816,9.73629729 15.5935922,8.90640783 C14.7637027,8.07651838 14.5644029,6.84994093 15.0246331,5.86257505 L13.5606602,4.3986021 L4.8986021,13.0606602 L6.36257505,14.5246331 C7.34994093,14.0644029 8.57651838,14.2637027 9.40640783,15.0935922 C10.2362973,15.9234816 10.4355971,17.1500591 9.97536688,18.1374249 L11.4393398,19.6013979 Z M8.22789653,17.6273915 C8.56300134,17.2922867 8.54949593,16.711554 8.16897097,16.331029 C7.788446,15.9505041 7.20771334,15.9369987 6.87260853,16.2721035 L6.2538901,16.8908219 L2.42372837,13.0606602 L13.5606602,1.92372837 L17.3908219,5.7538901 L16.7721035,6.37260853 C16.4369987,6.70771334 16.4505041,7.288446 16.831029,7.66897097 C17.211554,8.04949593 17.7922867,8.06300134 18.1273915,7.72789653 L18.7461099,7.1091781 L22.5762716,10.9393398 L11.4393398,22.0762716 L7.6091781,18.2461099 L8.22789653,17.6273915 Z M10.6438447,13.8561553 C9.59244726,12.8047579 9.55318892,11.1166493 10.5849191,10.0849191 C11.6166493,9.05318892 13.3047579,9.09244726 14.3561553,10.1438447 C15.4075527,11.1952421 15.4468111,12.8833507 14.4150809,13.9150809 C13.3833507,14.9468111 11.6952421,14.9075527 10.6438447,13.8561553 Z M11.8812816,12.6187184 C12.2618065,12.9992434 12.8425392,13.0127488 13.177644,12.677644 C13.5127488,12.3425392 13.4992434,11.7618065 13.1187184,11.3812816 C12.7381935,11.0007566 12.1574608,10.9872512 11.822356,11.322356 C11.4872512,11.6574608 11.5007566,12.2381935 11.8812816,12.6187184 Z" id="Shape" fill="#FFFFFF" fill-rule="nonzero"></path>
    </g>
</svg>