<?xml version="1.0" encoding="UTF-8"?>
<svg width="24px" height="24px" viewBox="0 0 24 24" version="1.1" xmlns="http://www.w3.org/2000/svg" xmlns:xlink="http://www.w3.org/1999/xlink">
    <!-- Generator: Sketch 61 (89581) - https://sketch.com -->
    <title>SVG/White/white/e-commerce/filter</title>
    <desc>Created with Sketch.</desc>
    <g id="white/e-commerce/filter" stroke="none" stroke-width="1" fill="none" fill-rule="evenodd">
        <rect id="Boundary" fill-opacity="0" fill="#FFFFFF" x="0" y="0" width="24" height="24"></rect>
        <path d="M9,15 C10.3062521,15 11.4175144,15.8348501 11.8293257,17.0000889 L20,17 L20,19 L11.8289758,19.0009007 C11.4168852,20.1656226 10.3058822,21 9,21 C7.69411778,21 6.58311485,20.1656226 6.17102423,19.0009007 L4,19 L4,17 L6.17067428,17.0000889 C6.58248558,15.8348501 7.69374794,15 9,15 Z M9,17 C8.44771525,17 8,17.4477153 8,18 C8,18.5522847 8.44771525,19 9,19 C9.55228475,19 10,18.5522847 10,18 C10,17.4477153 9.55228475,17 9,17 Z M15,9 C16.3062521,9 17.4175144,9.8348501 17.8293257,11.0000889 L20,11 L20,13 L17.8289758,13.0009007 C17.4168852,14.1656226 16.3058822,15 15,15 C13.6941178,15 12.5831148,14.1656226 12.1710242,13.0009007 L4,13 L4,11 L12.1706743,11.0000889 C12.5824856,9.8348501 13.6937479,9 15,9 Z M15,11 C14.4477153,11 14,11.4477153 14,12 C14,12.5522847 14.4477153,13 15,13 C15.5522847,13 16,12.5522847 16,12 C16,11.4477153 15.5522847,11 15,11 Z M9,3 C10.3062521,3 11.4175144,3.8348501 11.8293257,5.00008893 L20,5 L20,7 L11.8289758,7.00090072 C11.4168852,8.16562257 10.3058822,9 9,9 C7.69411778,9 6.58311485,8.16562257 6.17102423,7.00090072 L4,7 L4,5 L6.17067428,5.00008893 C6.58248558,3.8348501 7.69374794,3 9,3 Z M9,5 C8.44771525,5 8,5.44771525 8,6 C8,6.55228475 8.44771525,7 9,7 C9.55228475,7 10,6.55228475 10,6 C10,5.44771525 9.55228475,5 9,5 Z" id="Shape" fill="#FFFFFF" fill-rule="nonzero"></path>
    </g>
</svg>