<?xml version="1.0" encoding="UTF-8"?>
<svg width="24px" height="24px" viewBox="0 0 24 24" version="1.1" xmlns="http://www.w3.org/2000/svg" xmlns:xlink="http://www.w3.org/1999/xlink">
    <!-- Generator: Sketch 61 (89581) - https://sketch.com -->
    <title>SVG/White/white/e-commerce/money</title>
    <desc>Created with Sketch.</desc>
    <g id="white/e-commerce/money" stroke="none" stroke-width="1" fill="none" fill-rule="evenodd">
        <rect id="Boundary" fill-opacity="0" fill="#FFFFFF" x="0" y="0" width="24" height="24"></rect>
        <path d="M20,10.5839563 C18.8465576,10.0799959 17.9200041,9.15344243 17.4160437,8 L6.58395631,8 C6.07999588,9.15344243 5.15344243,10.0799959 4,10.5839563 L4,13.4160437 C5.15344243,13.9200041 6.07999588,14.8465576 6.58395631,16 L17.4160437,16 C17.9200041,14.8465576 18.8465576,13.9200041 20,13.4160437 L20,10.5839563 L20,10.5839563 Z M2,6 L22,6 L22,18 L2,18 L2,6 Z M12,13 C12.5522847,13 13,12.5522847 13,12 C13,11.4477153 12.5522847,11 12,11 C11.4477153,11 11,11.4477153 11,12 C11,12.5522847 11.4477153,13 12,13 Z M12,15 C10.3431458,15 9,13.6568542 9,12 C9,10.3431458 10.3431458,9 12,9 C13.6568542,9 15,10.3431458 15,12 C15,13.6568542 13.6568542,15 12,15 Z" id="Shape" fill="#FFFFFF" fill-rule="nonzero"></path>
    </g>
</svg>