<?xml version="1.0" encoding="UTF-8"?>
<svg width="24px" height="24px" viewBox="0 0 24 24" version="1.1" xmlns="http://www.w3.org/2000/svg" xmlns:xlink="http://www.w3.org/1999/xlink">
    <!-- Generator: Sketch 61 (89581) - https://sketch.com -->
    <title>SVG/White/white/e-commerce/shopping-bag</title>
    <desc>Created with Sketch.</desc>
    <g id="white/e-commerce/shopping-bag" stroke="none" stroke-width="1" fill="none" fill-rule="evenodd">
        <rect id="Boundary" fill-opacity="0" fill="#FFFFFF" x="0" y="0" width="24" height="24"></rect>
        <path d="M12,2 C13.6568542,2 15,3.34314575 15,5 L14.9992005,7 L18.9201329,7 L20.0867995,21 L3.91320045,21 L5.07986712,7 L8.99920045,7 L9,5 C9,3.34314575 10.3431458,2 12,2 Z M17.0798671,9 L14.9992005,9 L15,12 L13,12 L12.9992005,9 L10.9992005,9 L11,12 L9,12 L8.99920045,9 L6.92013288,9 L6.08679955,19 L17.9132005,19 L17.0798671,9 Z M12,4 C11.4477153,4 11,4.44771525 11,5 L10.9992005,7 L12.9992005,7 L13,5 C13,4.44771525 12.5522847,4 12,4 Z" id="Shape" fill="#FFFFFF" fill-rule="nonzero"></path>
    </g>
</svg>