<?xml version="1.0" encoding="UTF-8"?>
<svg width="24px" height="24px" viewBox="0 0 24 24" version="1.1" xmlns="http://www.w3.org/2000/svg" xmlns:xlink="http://www.w3.org/1999/xlink">
    <!-- Generator: Sketch 61 (89581) - https://sketch.com -->
    <title>SVG/White/white/others/briefcase</title>
    <desc>Created with Sketch.</desc>
    <g id="white/others/briefcase" stroke="none" stroke-width="1" fill="none" fill-rule="evenodd">
        <rect id="Boundary" fill-opacity="0" fill="#FFFFFF" x="0" y="0" width="24" height="24"></rect>
        <path d="M16,5 L16,8 L20,8 L20,20 L4,20 L4,8 L8,8 L8,5 L16,5 Z M18,15 L13,15 L13,16 L11,16 L11,15 L6,15 L6,18 L18,18 L18,15 Z M18,10 L6,10 L6,13 L11,13 L11,12 L13,12 L13,13 L18,13 L18,10 Z M14,7 L10,7 L10,8 L14,8 L14,7 Z" id="Shape" fill="#FFFFFF" fill-rule="nonzero"></path>
    </g>
</svg>