<?xml version="1.0" encoding="UTF-8"?>
<svg width="24px" height="24px" viewBox="0 0 24 24" version="1.1" xmlns="http://www.w3.org/2000/svg" xmlns:xlink="http://www.w3.org/1999/xlink">
    <!-- Generator: Sketch 61 (89581) - https://sketch.com -->
    <title>SVG/White/white/others/disability</title>
    <desc>Created with Sketch.</desc>
    <g id="white/others/disability" stroke="none" stroke-width="1" fill="none" fill-rule="evenodd">
        <rect id="Boundary" fill-opacity="0" fill="#FFFFFF" x="0" y="0" width="24" height="24"></rect>
        <path d="M10,2.5 C11.6568542,2.5 13,3.84314575 13,5.5 C13,6.80588222 12.1656226,7.91688515 11.0009007,8.32897577 L11,9.5 L16,9.5 L16,11.5 L11,11.5 L11,14.5 L18,14.5 L18,19.5 L20,19.5 L20,21.5 L16,21.5 L16,16.5 L15.9169061,16.5008069 C15.4404956,19.3381232 12.9727145,21.5 10,21.5 C6.6862915,21.5 4,18.8137085 4,15.5 C4,12.5269368 6.16238395,10.0589255 9.00019152,9.58292631 L9.00008893,8.32932572 C7.8348501,7.91751442 7,6.80625206 7,5.5 C7,3.84314575 8.34314575,2.5 10,2.5 Z M9,11.6260175 C7.27477279,12.0700603 6,13.6361606 6,15.5 C6,17.709139 7.790861,19.5 10,19.5 C11.8638394,19.5 13.4299397,18.2252272 13.8739825,16.5 L9,16.5 L9,11.6260175 Z M10,4.5 C9.44771525,4.5 9,4.94771525 9,5.5 C9,6.05228475 9.44771525,6.5 10,6.5 C10.5522847,6.5 11,6.05228475 11,5.5 C11,4.94771525 10.5522847,4.5 10,4.5 Z" id="Shape" fill="#FFFFFF" fill-rule="nonzero"></path>
    </g>
</svg>