<?xml version="1.0" encoding="UTF-8"?>
<svg width="24px" height="24px" viewBox="0 0 24 24" version="1.1" xmlns="http://www.w3.org/2000/svg" xmlns:xlink="http://www.w3.org/1999/xlink">
    <!-- Generator: Sketch 61 (89581) - https://sketch.com -->
    <title>SVG/White/white/symbol/heart</title>
    <desc>Created with Sketch.</desc>
    <g id="white/symbol/heart" stroke="none" stroke-width="1" fill="none" fill-rule="evenodd">
        <rect id="Boundary" fill-opacity="0" fill="#FFFFFF" x="0" y="0" width="24" height="24"></rect>
        <path d="M18.8571429,9.66666667 C18.8571429,7.71530617 17.3167846,6.14285714 15.4285714,6.14285714 C14.4360763,6.14285714 13.5128975,6.57744111 12.8645259,7.32734551 L12,8.32725338 L11.1354741,7.32734551 C10.4871025,6.57744111 9.5639237,6.14285714 8.57142857,6.14285714 C6.68321537,6.14285714 5.14285714,7.71530617 5.14285714,9.66666667 C5.14285714,12.1667925 7.37265508,14.865828 12,17.6704826 C16.6273449,14.865828 18.8571429,12.1667925 18.8571429,9.66666667 Z M15.4285714,3.85714286 C18.5898188,3.85714286 21.1428571,6.4633695 21.1428571,9.66666667 C21.1428571,13.2871932 18.224177,16.69232 12.5758526,19.9871759 L12,20.3230899 L11.4241474,19.9871759 C5.77582296,16.69232 2.85714286,13.2871932 2.85714286,9.66666667 C2.85714286,6.4633695 5.4101812,3.85714286 8.57142857,3.85714286 C9.83205195,3.85714286 11.0267636,4.27522055 12,5.01833273 C12.9732364,4.27522055 14.167948,3.85714286 15.4285714,3.85714286 Z" id="Shape" fill="#FFFFFF" fill-rule="nonzero"></path>
    </g>
</svg>