<?xml version="1.0" encoding="UTF-8"?>
<svg width="24px" height="24px" viewBox="0 0 24 24" version="1.1" xmlns="http://www.w3.org/2000/svg" xmlns:xlink="http://www.w3.org/1999/xlink">
    <!-- Generator: Sketch 61 (89581) - https://sketch.com -->
    <title>SVG/White/white/symbol/rotate-clockwise</title>
    <desc>Created with Sketch.</desc>
    <g id="white/symbol/rotate-clockwise" stroke="none" stroke-width="1" fill="none" fill-rule="evenodd">
        <rect id="Boundary" fill-opacity="0" fill="#FFFFFF" x="0" y="0" width="24" height="24"></rect>
        <path d="M12.0002356,1.58588185 L12.109218,1.58648903 C12.1671928,1.58727222 12.2251038,1.58867861 12.282942,1.59070559 C12.3309962,1.59248379 12.3794347,1.59460885 12.4277916,1.59716608 C12.4884901,1.6003072 12.5491047,1.60421265 12.6096197,1.60879926 C12.6391082,1.61107372 12.6681196,1.61342668 12.6970981,1.61593522 C12.7719221,1.62240158 12.8467263,1.62995211 12.9213493,1.63854329 C12.9572644,1.64264415 12.9939988,1.6471197 13.0306733,1.65184562 C13.0918367,1.65978989 13.1521317,1.66827728 13.21229,1.67744525 C13.2526638,1.68351014 13.2934074,1.69003338 13.3340685,1.69686631 C13.3990579,1.70789759 13.4636369,1.71958067 13.5280343,1.73205074 C13.5652888,1.73913835 13.602335,1.74658245 13.6393052,1.75428471 C13.7003264,1.76713205 13.7616329,1.78066165 13.8227539,1.79490781 C13.8619847,1.80390971 13.9006846,1.81323775 13.9392927,1.82285017 C13.9938974,1.83658818 14.0485915,1.85082254 14.1031202,1.86563426 C14.1579442,1.88039047 14.2122473,1.8957687 14.2663493,1.91171295 C14.3066479,1.92371248 14.3473254,1.93604855 14.3879006,1.94870902 C14.4425027,1.96563689 14.4967627,1.98321818 14.5508026,2.00137213 C14.5918422,2.01524835 14.632524,2.02927792 14.6730919,2.04363738 C14.7237078,2.06148679 14.7743654,2.08000739 14.8248131,2.0990349 C14.8865535,2.12235482 14.9478972,2.14635424 15.0089494,2.1711186 C15.034049,2.18130071 15.059026,2.19158649 15.0839472,2.20199808 C15.1418451,2.22615984 15.1995902,2.25107782 15.2570528,2.27668709 C15.3054991,2.2983419 15.3538064,2.32046463 15.4018835,2.3430669 C15.4394182,2.36061876 15.4765376,2.3784156 15.5135286,2.39650561 C15.5641294,2.42137295 15.6147786,2.44682502 15.6651518,2.47281558 C15.7090363,2.49530588 15.7524026,2.51818433 15.7955752,2.54147372 C15.8388438,2.56499262 15.8820901,2.58884984 15.9251164,2.61310995 C15.9846477,2.64647405 16.0437958,2.68082565 16.1025427,2.71596564 C16.1264299,2.73047195 16.150335,2.74494402 16.1741665,2.7595431 C16.2285944,2.79266195 16.2823907,2.82650654 16.3358249,2.86102343 C16.3769566,2.88781883 16.4184665,2.91518044 16.4597316,2.94293648 C16.4845628,2.95941376 16.5086195,2.9757911 16.5325977,2.99230768 C16.5949318,3.03545973 16.6571928,3.07966093 16.7188507,3.12477527 C16.7474677,3.14551081 16.7759343,3.16663529 16.8042788,3.18796289 C16.8485068,3.22142882 16.8923656,3.25513874 16.9358971,3.2893196 C16.9755505,3.32029542 17.0150371,3.35191552 17.0542645,3.38394243 C17.1000891,3.42149044 17.1449759,3.45895596 17.1894827,3.49693622 C17.2230913,3.52551793 17.2569542,3.55491181 17.290606,3.58461956 C17.4046388,3.68533598 17.5159221,3.78928086 17.6244564,3.89658037 L17.4160922,3.69775872 C17.4977593,3.77295434 17.578112,3.85004982 17.6570898,3.9290276 L17.4652356,3.74478644 L17.6244564,3.89658037 C17.6893906,3.96077575 17.753134,4.02596712 17.815669,4.09212237 C17.9348203,4.21806621 18.04949,4.34743731 18.1592517,4.47951144 C18.1973229,4.52568438 18.2352462,4.5724129 18.2726156,4.61953088 C18.3183727,4.67671729 18.362771,4.7342511 18.4062787,4.79224134 C18.4217766,4.81354021 18.4377434,4.83506044 18.4535981,4.85665516 C18.4954061,4.91288003 18.5357052,4.96926775 18.5751841,5.02605292 C18.5906434,5.04912078 18.6068724,5.0727414 18.6229709,5.09644397 C18.6630009,5.15449366 18.7013302,5.21254217 18.7388237,5.2709717 C18.7554648,5.29788043 18.7725465,5.32485881 18.7894633,5.35193462 C18.8168136,5.39470468 18.8431368,5.43774336 18.869016,5.48097373 C18.8960043,5.52708459 18.9231321,5.57344897 18.9497852,5.62007623 C18.9682095,5.651273 18.9860208,5.68294437 19.0035995,5.71470996 C19.0326738,5.76825555 19.0616065,5.82195922 19.0899178,5.87598622 C19.102903,5.89980124 19.1153267,5.92382496 19.1276205,5.94789794 C19.1564472,6.00524158 19.1851032,6.06302533 19.2130551,6.12115379 C19.2359103,6.16790124 19.2578549,6.21475778 19.2793202,6.26177951 C19.2953678,6.29760286 19.311407,6.33339476 19.3271826,6.36930787 C19.3990966,6.53260123 19.4652301,6.69836568 19.5256038,6.86574076 C19.5351239,6.8920305 19.5443751,6.91806595 19.5534923,6.9441544 C19.5755428,7.00752149 19.597005,7.07162987 19.617633,7.13594767 C19.6300703,7.17417822 19.6419518,7.21215382 19.6535522,7.25023158 C19.6705495,7.30677799 19.6872317,7.36388748 19.7032646,7.42114057 C19.7160985,7.46593907 19.7283616,7.51120648 19.7402303,7.55660508 C19.7518849,7.6024295 19.7633062,7.64779782 19.7743246,7.6932439 C19.7859674,7.73981773 19.7970083,7.78719522 19.8076216,7.83470348 C19.8165849,7.87644967 19.8254739,7.91780472 19.8340323,7.95921446 C19.8453868,8.01237927 19.8559323,8.06617129 19.8659311,8.12011599 C19.8697149,8.14245063 19.8736984,8.16445103 19.8775893,8.18646459 C19.8901074,8.25533409 19.9014431,8.32483008 19.911871,8.39455711 C19.9393548,8.58009292 19.9606563,8.7668478 19.9753968,8.95402238 C19.9781504,8.98730023 19.9805541,9.0206126 19.9827521,9.05396578 C19.9864145,9.11092796 19.9895813,9.1679393 19.992141,9.22497282 C19.9975475,9.34497939 20.0002356,9.46522129 20.0002356,9.58588185 L19.9970964,9.36108956 C19.9986159,9.41548211 19.9995837,9.46988721 20,9.52429575 L20.0002356,9.58588185 C20.0002356,9.61366976 20.0000939,9.64142458 19.9998112,9.66914563 C19.9995313,9.69549415 19.9991353,9.72148906 19.9986134,9.7474819 C19.9974566,9.80710018 19.9956138,9.86683007 19.9931197,9.92639164 C19.9915387,9.96167143 19.9897915,9.99735852 19.9878065,10.0330349 C19.9809442,10.1600741 19.9710162,10.2859199 19.9582105,10.4109134 C19.9450147,10.5354028 19.9291968,10.6601964 19.9104406,10.7846325 C19.8484558,11.2009548 19.753864,11.6065962 19.6298137,11.9991498 C19.617102,12.0378099 19.6045761,12.0764922 19.5917482,12.1150961 C19.5794811,12.1532619 19.5666309,12.1908984 19.5535093,12.2284074 C19.544279,12.2538174 19.5351766,12.2794739 19.5259393,12.3050927 C19.4810222,12.4301889 19.433029,12.5532257 19.382123,12.6747397 C19.3297797,12.8000285 19.2740252,12.9243772 19.2149361,13.0475265 C19.1635182,13.153733 19.1100437,13.2589178 19.0543445,13.3627307 C19.0101653,13.4463387 18.9637816,13.5293013 18.9158062,13.6115911 C18.8963077,13.6436966 18.8776032,13.6752496 18.858689,13.7066621 C18.7943488,13.8149072 18.7263602,13.92203 18.655577,14.0278376 C18.6355935,14.0564768 18.6159965,14.08537 18.5962163,14.1141275 C18.5681854,14.1560352 18.5394112,14.1970116 18.5102078,14.2377754 C18.4903323,14.2644701 18.4707163,14.2915146 18.450936,14.3184308 C18.4198198,14.361717 18.3878045,14.4043433 18.3553078,14.4467189 C18.3207117,14.4910527 18.2859326,14.5354788 18.2506977,14.5795243 C18.2401822,14.5933072 18.2294974,14.6065598 18.218764,14.6197861 L18.2506977,14.5795243 C18.1310264,14.7291196 18.0060963,14.874325 17.8761876,15.0148604 C17.8049407,15.09198 17.7319112,15.1679147 17.6570898,15.2427361 L17.8171918,15.0779988 C16.3586857,16.622219 14.2919984,17.5858818 12.0002356,17.5858818 L12.0002356,17.5858818 L11.4142356,17.5857864 L13.4144491,19.5858818 L12.0002356,21.0000954 L7.586022,16.5858818 L12.0002356,12.1716683 L13.4144491,13.5858818 L11.4142356,15.5857864 L12.0002356,15.5858818 C13.6570898,15.5858818 15.1570898,14.914309 16.2428762,13.8285225 L16.4184966,13.6454582 C16.4667037,13.5930677 16.5138089,13.5400278 16.5598122,13.486368 C16.5772235,13.4657553 16.5949689,13.4447454 16.6125719,13.4236127 L16.5598122,13.486368 C16.613344,13.4239267 16.6653837,13.3606461 16.7159313,13.2965729 L16.6125719,13.4236127 C16.6648959,13.3607964 16.7159609,13.2968944 16.7657281,13.2319456 L16.7159313,13.2965729 C16.76106,13.2393688 16.8049993,13.1815329 16.8477493,13.1230986 L16.7657281,13.2319456 C16.8134406,13.1696782 16.8599603,13.1064486 16.905253,13.0422909 L16.8477493,13.1230986 C16.9296231,13.0111867 17.0071346,12.8970798 17.0802838,12.7810119 C17.1264445,12.706783 17.1714688,12.6317689 17.2148772,12.5557133 C17.2316546,12.5272539 17.2475782,12.4987856 17.2632519,12.4702168 L17.2148772,12.5557133 C17.251155,12.4921514 17.2863041,12.427862 17.3202972,12.3628725 L17.2632519,12.4702168 C17.2982708,12.4063867 17.3320417,12.3420546 17.3645646,12.277256 L17.3202972,12.3628725 C17.3529261,12.3004911 17.3844901,12.2374647 17.4149648,12.1738173 L17.3645646,12.277256 C17.4043143,12.1980589 17.4421999,12.1181651 17.4782211,12.03764 L17.4149648,12.1738173 C17.4467453,12.1074429 17.4773413,12.0403933 17.5067255,11.9726957 L17.4782211,12.03764 C17.5086334,11.9696538 17.5377168,11.9012177 17.5654714,11.8323709 L17.5067255,11.9726957 C17.5384622,11.8995781 17.5687852,11.8257047 17.5976601,11.75111 L17.5654714,11.8323709 C17.5943981,11.7606164 17.6218814,11.6884158 17.6479212,11.6158137 L17.5976601,11.75111 C17.6259297,11.6780791 17.6528111,11.6043567 17.6782722,11.5299753 L17.6479212,11.6158137 C17.6692553,11.5563316 17.6896205,11.49658 17.7090168,11.4365833 L17.6782722,11.5299753 C17.7084254,11.4418864 17.7365863,11.3528731 17.7627013,11.2629893 C17.8194521,11.0656693 17.8661855,10.8668286 17.9026798,10.6664889 C17.9092309,10.633249 17.9149834,10.600026 17.9204614,10.5667105 L17.9026798,10.6664889 C17.9163573,10.5914051 17.9285965,10.5161107 17.9393975,10.4406501 L17.9204614,10.5667105 C17.9334811,10.4875298 17.9449507,10.4078268 17.954838,10.3276339 L17.9393975,10.4406501 C17.9505824,10.3625083 17.960225,10.2841882 17.9683254,10.205739 L17.954838,10.3276339 C17.9635393,10.2570596 17.9710151,10.1861059 17.9772434,10.1147946 L17.9683254,10.205739 C17.9761457,10.1300018 17.9825287,10.0541442 17.9874742,9.97821047 L17.9772434,10.1147946 C17.9840627,10.0367183 17.9893865,9.95821342 17.9931862,9.87930879 L17.9874742,9.97821047 C17.9970079,9.83182928 18.0011998,9.68516527 18.0000499,9.53853537 C17.9995806,9.47864369 17.9982579,9.41967317 17.9960859,9.36086037 L18.0000499,9.53853537 C17.9993181,9.445211 17.9964223,9.35190046 17.9913627,9.25868544 L17.9960859,9.36086037 C17.9886054,9.15830816 17.9710508,8.95762663 17.9437442,8.75939642 C17.9360452,8.70639484 17.9280437,8.65371142 17.9193399,8.60112163 L17.9437442,8.75939642 C17.9319654,8.67388976 17.9183722,8.5888392 17.9029903,8.50429133 L17.9193399,8.60112163 C17.9060244,8.52066699 17.8910651,8.44043148 17.874462,8.3604692 L17.9029903,8.50429133 C17.8864223,8.41322367 17.8677791,8.32273922 17.847093,8.23289622 L17.874462,8.3604692 C17.8577495,8.27998007 17.8393714,8.19976779 17.8193278,8.11988753 L17.847093,8.23289622 C17.8290293,8.15444266 17.8094078,8.07647823 17.7882501,7.99904169 L17.8193278,8.11988753 C17.7988089,8.03811314 17.7765445,7.95668671 17.7525347,7.87566744 L17.7882501,7.99904169 C17.7633713,7.90798609 17.7363684,7.81766042 17.7072763,7.7281277 L17.7525347,7.87566744 C17.7277285,7.79196093 17.7010592,7.70868903 17.6725267,7.62591703 L17.7072763,7.7281277 C17.6843279,7.65750253 17.6600795,7.58737077 17.6345483,7.51776337 L17.6725267,7.62591703 C17.574293,7.34094411 17.4539745,7.06189667 17.3115712,6.79143903 C17.2916059,6.75343768 17.2712777,6.71585854 17.2505457,6.67849711 L17.3115712,6.79143903 C17.2767779,6.72535819 17.2406661,6.65979014 17.203236,6.59477373 L17.2505457,6.67849711 C17.2076431,6.60118199 17.1630112,6.52479919 17.1166791,6.44940149 L17.203236,6.59477373 C17.1586392,6.51730886 17.1121709,6.44062711 17.0638309,6.3647942 L17.1166791,6.44940149 C17.0712847,6.37552967 17.0242582,6.30260348 16.9756273,6.23067257 L17.0638309,6.3647942 C17.0156669,6.28923726 16.9656449,6.214523 16.9137649,6.14071643 L16.9756273,6.23067257 C16.8712262,6.07625098 16.7594303,5.92641637 16.6405121,5.78165988 C16.516426,5.63055095 16.3838946,5.4842595 16.2428762,5.34324116 L16.3242356,5.42778644 L16.2340476,5.33443047 C16.1315778,5.23237794 16.0260747,5.13454694 15.9177663,5.04100286 C15.8227673,4.95905971 15.7256818,4.88037945 15.6264322,4.80492119 C15.5652252,4.75823646 15.5032577,4.71296659 15.4405628,4.66898031 C15.2719052,4.55080872 15.0972132,4.44125093 14.917474,4.3410607 C14.9121875,4.337985 14.9067809,4.33498305 14.9013701,4.33198979 L14.917474,4.3410607 C14.8375976,4.29653598 14.7567244,4.25386128 14.6749126,4.2130686 L14.9013701,4.33198979 C14.8211466,4.28760981 14.7400101,4.24514209 14.658024,4.20460488 L14.6749126,4.2130686 C14.6046811,4.17805 14.5337579,4.14441834 14.4621799,4.11219385 L14.658024,4.20460488 C14.5760281,4.16406278 14.4931825,4.12545166 14.4095509,4.08878977 L14.4621799,4.11219385 C14.4194355,4.09295029 14.3764576,4.07420855 14.3332541,4.05597294 L14.4095509,4.08878977 C14.2431529,4.01584524 14.0736433,3.95061717 13.9015237,3.8932493 C13.8446773,3.87419924 13.787559,3.8561045 13.7301327,3.83886233 L13.9015237,3.8932493 C13.8109167,3.86304978 13.7195865,3.83502846 13.6276062,3.8092063 L13.7301327,3.83886233 C13.6688731,3.82046923 13.6072629,3.80304634 13.5453218,3.78660445 L13.6276062,3.8092063 C13.5367355,3.78369566 13.4452303,3.76033145 13.3531612,3.73913387 L13.5453218,3.78660445 C13.466126,3.76558238 13.3863892,3.74616399 13.3061526,3.72837188 L13.3531612,3.73913387 C13.2654677,3.71894372 13.1772626,3.70071915 13.0886068,3.68447765 L13.3061526,3.72837188 C13.188212,3.70221907 13.0691915,3.67958003 12.9492215,3.66052648 L13.0886068,3.68447765 C13.0008633,3.66840329 12.9126784,3.65427138 12.8241111,3.64209886 L12.9492215,3.66052648 C12.865065,3.64716079 12.7804413,3.63555943 12.6953954,3.62574715 L12.8241111,3.64209886 C12.7292258,3.62905799 12.6339016,3.61826605 12.5382113,3.60974384 L12.6953954,3.62574715 C12.6133642,3.61628268 12.5309403,3.60848272 12.4481642,3.60236946 L12.5382113,3.60974384 C12.4432288,3.60128467 12.3478856,3.59506179 12.2522527,3.59109556 L12.1772356,3.58978644 L11.9830943,3.58590581 C11.9589029,3.58597346 11.9347452,3.58618428 11.9106219,3.58653746 C11.8449559,3.58751536 11.7795561,3.58954095 11.7142977,3.59261679 L11.9106219,3.58653746 C11.8253415,3.58778603 11.740492,3.5908138 11.6561088,3.59558531 L11.7142977,3.59261679 C11.623436,3.59689939 11.5328485,3.60321799 11.4425958,3.61155497 L11.6561088,3.59558531 C11.5697287,3.60046974 11.4838373,3.60718141 11.3984726,3.61568229 L11.4425958,3.61155497 C11.3497137,3.62013485 11.2571862,3.63085241 11.1650794,3.64368845 L11.3984726,3.61568229 C11.3095689,3.6245356 11.2212364,3.63532954 11.1335181,3.64802115 L11.1650794,3.64368845 C11.0692838,3.65703857 10.9739433,3.67268025 10.8791322,3.69059186 L11.1335181,3.64802115 C11.0384882,3.66177065 10.9441792,3.67774735 10.8506458,3.69589662 L10.8791322,3.69059186 C10.7922565,3.70700434 10.7058253,3.72532269 10.6198958,3.74553026 L10.8506458,3.69589662 C10.7601471,3.71345703 10.6703744,3.73305131 10.5813772,3.75462999 L10.6198958,3.74553026 C10.5430897,3.76359234 10.4666845,3.78316377 10.3907211,3.80423267 L10.5813772,3.75462999 C10.4850602,3.77798345 10.3896516,3.80366114 10.295214,3.83160034 L10.3907211,3.80423267 C10.3043496,3.82818831 10.2185491,3.85407987 10.1333798,3.8818899 L10.295214,3.83160034 C10.220887,3.85358983 10.1471616,3.87698019 10.0740683,3.90174085 L10.1333798,3.8818899 C10.0545648,3.90762506 9.97629036,3.93500309 9.89860394,3.96401015 L10.0740683,3.90174085 C9.95951791,3.94054525 9.84652,3.98271516 9.73519226,4.02813287 C9.6962305,4.04365009 9.65694456,4.06014219 9.6178289,4.07705927 L9.73519226,4.02813287 C9.66424536,4.05707665 9.59397675,4.08733944 9.52441692,4.11889077 L9.6178289,4.07705927 C9.54407201,4.1089583 9.47092053,4.14236838 9.39841765,4.17727694 L9.52441692,4.11889077 C9.44447219,4.15515255 9.36546365,4.19311633 9.28743756,4.23273587 L9.39841765,4.17727694 C9.29611269,4.22653457 9.19509913,4.27877576 9.09549827,4.33396523 L9.28743756,4.23273587 C9.1130806,4.32126962 8.94362942,4.41807129 8.77960008,4.52262478 C8.7474783,4.5424428 8.71581784,4.56305671 8.68432989,4.58398647 L8.77960008,4.52262478 C8.70868821,4.56782452 8.63878966,4.61447303 8.56994611,4.66252861 L8.68432989,4.58398647 C8.51502172,4.69652408 8.35070093,4.81819322 8.19204585,4.94879659 C8.17793693,4.96069468 8.16315564,4.97296363 8.14843445,4.98530192 L8.19204585,4.94879659 C8.12119645,5.00711914 8.0514769,5.06722334 7.9829476,5.12909161 L8.14843445,4.98530192 C8.08190596,5.04106151 8.01660481,5.09823741 7.95257738,5.15678323 L7.75759487,5.34324116 C7.7037521,5.39708394 7.65114656,5.45169544 7.59977828,5.50704034 C7.58086754,5.52750891 7.56171885,5.54844845 7.54271749,5.56952342 L7.59977828,5.50704034 C7.5416633,5.56965421 7.48513191,5.63320678 7.43018411,5.69764689 L7.54271749,5.56952342 C7.49537053,5.62203736 7.44893834,5.67539218 7.40344604,5.72956277 L7.43018411,5.69764689 C7.38346918,5.75243187 7.33789885,5.80785836 7.29347312,5.86389492 L7.40344604,5.72956277 C7.34464753,5.79957793 7.28741914,5.87095587 7.23181509,5.94364238 L7.29347312,5.86389492 C7.24520487,5.92477825 7.19828778,5.98638173 7.15272184,6.04866506 L7.23181509,5.94364238 C7.18512687,6.00467397 7.13958384,6.06662813 7.0952181,6.12947277 L7.15272184,6.04866506 C7.12847473,6.08180805 7.10461021,6.11514355 7.08112829,6.14866548 L7.0952181,6.12947277 C6.98806218,6.28126049 6.88777406,6.43824291 6.79480591,6.59996783 C6.77246631,6.63788782 6.75101101,6.67621749 6.73000902,6.71472866 L6.79480591,6.59996783 C6.76724467,6.64791264 6.74032677,6.69627426 6.71406398,6.7450409 L6.73000902,6.71472866 C6.69539842,6.77819383 6.66201892,6.8421519 6.62987051,6.90656783 L6.71406398,6.7450409 C6.67209779,6.82296677 6.63180438,6.90192682 6.59323182,6.981873 L6.62987051,6.90656783 C6.59448279,6.97747438 6.56058675,7.04893569 6.52818241,7.12090499 L6.59323182,6.981873 C6.55994204,7.05086999 6.52793403,7.12060149 6.49723867,7.19103659 L6.52818241,7.12090499 C6.49710484,7.18992756 6.4673993,7.25941736 6.4390658,7.32933316 L6.49723867,7.19103659 C6.46449831,7.26616428 6.43325134,7.34209245 6.40353527,7.4187836 L6.4390658,7.32933316 C6.41344928,7.39254455 6.38895427,7.45610414 6.36558077,7.51998146 L6.40353527,7.4187836 C6.37627756,7.4891302 6.35030793,7.56011876 6.32565532,7.63172035 L6.36558077,7.51998146 C6.33954048,7.59114686 6.31489221,7.66270662 6.29163598,7.73461857 L6.32565532,7.63172035 C6.30047595,7.70485187 6.27667047,7.77862288 6.25426973,7.85300256 L6.19549771,8.06382798 C6.15733488,8.20993157 6.12476608,8.35719371 6.09779131,8.50527477 C6.09148121,8.53718952 6.08594837,8.56907999 6.08066836,8.60105574 L6.09779131,8.50527477 C6.08411387,8.5803586 6.07187462,8.65565297 6.06107357,8.73111361 L6.08066836,8.60105574 C6.06895686,8.67198054 6.05848921,8.74332491 6.04928856,8.81506568 L6.06107357,8.73111361 C6.04988876,8.80925539 6.04024616,8.88757546 6.03214576,8.96602465 L6.04928856,8.81506568 C6.03900938,8.89521613 6.03031165,8.97586138 6.02322768,9.05696912 L6.03214576,8.96602465 C6.0245321,9.03976004 6.01828088,9.11360951 6.01339211,9.18753221 L6.02322768,9.05696912 C6.01634195,9.13580703 6.01098091,9.21508192 6.00717421,9.29476412 L6.01339211,9.18753221 C5.90325094,10.8529673 6.48465186,12.5555795 7.75759487,13.8285225 L7.75759487,13.8285225 L6.34338131,15.2427361 C4.78141149,13.6807663 4.00036291,11.6335942 4.00023558,9.58638255 C4.00023556,9.54620071 4.00052447,9.50658705 4.00110029,9.46704285 C4.00132176,9.45286626 4.00157173,9.43851448 4.00186009,9.42416332 C4.00311494,9.35972681 4.00515589,9.29543776 4.00795097,9.23134443 C4.00943188,9.19995736 4.0109804,9.16894474 4.0127085,9.13794026 C4.01999345,9.00322964 4.03079464,8.86903225 4.04486572,8.73581003 C4.05757171,8.61977639 4.07252074,8.50329804 4.09003056,8.38713115 C4.15393926,7.958007 4.25245741,7.54021933 4.38218972,7.13642185 C4.39143266,7.10915014 4.40017197,7.08238896 4.40905607,7.05566536 C4.42740116,6.99925173 4.44701282,6.94252532 4.46724061,6.8860923 C4.47125025,6.87576842 4.4748614,6.86573615 4.47849322,6.85570968 C4.52800095,6.71851409 4.58158263,6.58275162 4.63871012,6.44886438 C4.68514348,6.33964698 4.73407468,6.23148722 4.78553501,6.12423718 C4.89451529,5.89827204 5.01359328,5.67792476 5.14238944,5.46409308 C5.2113228,5.34825711 5.284254,5.233804 5.36038078,5.12086362 C5.37753381,5.09663778 5.39388221,5.07266051 5.41035709,5.0487772 C5.43716779,5.00875026 5.46531087,4.96875729 5.4938633,4.92896739 C5.51261031,4.90388763 5.53100054,4.87855392 5.54953513,4.85333288 C5.58065137,4.81004665 5.61266662,4.76742038 5.64516337,4.72504476 C5.68596487,4.67260985 5.72713195,4.62022991 5.76893288,4.5683824 C5.77475256,4.56055075 5.78066952,4.5532477 5.78660126,4.54595266 C5.84186404,4.47848821 5.89825076,4.41132367 5.95570731,4.34511255 C5.96982541,4.32853868 5.98422941,4.31209493 5.99871213,4.29569636 C6.04019573,4.24893615 6.08197558,4.20267208 6.12428348,4.15690334 C6.19553044,4.07978372 6.26855992,4.00384899 6.34338131,3.9290276 L6.18516319,4.09177099 C6.37791454,3.88783124 6.58127751,3.69402674 6.79436878,3.51124083 C6.81162705,3.49624212 6.82890409,3.48153892 6.84623395,3.46691662 C6.90724953,3.41568403 6.96900707,3.365163 7.03152362,3.31555714 C7.04841368,3.30183407 7.06539621,3.28846208 7.08242497,3.27516483 C7.22879815,3.16127434 7.37902996,3.0521764 7.53307347,2.94829949 C7.55969881,2.92990321 7.5863109,2.91218979 7.61301535,2.8946454 C7.67374302,2.85518426 7.73512936,2.8160359 7.79707783,2.77770944 C7.81151239,2.76836757 7.82589676,2.75953466 7.84030583,2.7507495 C7.89571375,2.71735688 7.95167814,2.68414905 8.00807666,2.6516095 C8.06557948,2.61810401 8.12330802,2.58577372 8.18139081,2.55418882 C8.23931688,2.52293888 8.29780303,2.49204034 8.35671269,2.46185103 C8.36807355,2.45584597 8.37937364,2.45009536 8.39068619,2.44437241 C8.45708258,2.41091651 8.52406009,2.37816559 8.59155465,2.34633075 C8.62464156,2.33068778 8.65797162,2.31526728 8.69139936,2.30008167 C8.75400542,2.2716016 8.81692208,2.24395943 8.88025625,2.21710994 C8.90177183,2.20811524 8.92348647,2.19903517 8.94523886,2.19005251 C9.03011334,2.1548073 9.11543871,2.12123873 9.20146548,2.08910852 C9.21680542,2.08367455 9.23244907,2.07789476 9.24811027,2.07216437 C9.32590424,2.04335512 9.40399032,2.01612124 9.48261716,1.9900741 C9.4994671,1.98490647 9.51683091,1.97922553 9.53421415,1.97360436 C9.90829685,1.85211324 10.2939088,1.75794598 10.689294,1.69276923 C10.7024033,1.69100652 10.7154241,1.6888886 10.7284515,1.68680263 C10.8012649,1.67478174 10.874544,1.66411356 10.9481381,1.65444569 C11.0227947,1.64490403 11.0971055,1.63616696 11.1715897,1.62846436 C11.204558,1.62488368 11.2379807,1.62165382 11.271463,1.61863025 C11.3285173,1.61358578 11.3855461,1.60902002 11.4426619,1.6050603 C11.480162,1.60242739 11.5178813,1.60009532 11.5556706,1.59802551 C11.6882598,1.59070546 11.8210752,1.58665121 11.9542166,1.58588108 L11.6918123,1.59171776 C11.7941396,1.58783884 11.896959,1.58588185 12.0002356,1.58588185 L11.8992356,1.58678644 L11.9542166,1.58588108 L11.9542166,1.58588108 L12.0002356,1.58588185 L12.0002356,1.58588185 Z" id="Shape" fill="#FFFFFF" fill-rule="nonzero" transform="translate(12.000118, 11.292941) rotate(-180.000000) translate(-12.000118, -11.292941) "></path>
    </g>
</svg>