<?xml version="1.0" encoding="UTF-8"?>
<svg width="24px" height="24px" viewBox="0 0 24 24" version="1.1" xmlns="http://www.w3.org/2000/svg" xmlns:xlink="http://www.w3.org/1999/xlink">
    <!-- Generator: Sketch 61 (89581) - https://sketch.com -->
    <title>SVG/White/white/symbol/rotate-anti-clockwise</title>
    <desc>Created with Sketch.</desc>
    <g id="white/symbol/rotate-anti-clockwise" stroke="none" stroke-width="1" fill="none" fill-rule="evenodd">
        <rect id="Boundary" fill-opacity="0" fill="#FFFFFF" x="0" y="0" width="24" height="24"></rect>
        <path d="M11.3570394,20.9744434 L11.7122356,20.9950954 L12.109218,20.9993928 L12.3552533,20.9922382 L12.3552533,20.9922382 L12.6970981,20.9699466 L12.6970981,20.9699466 L13.0306733,20.9340362 L13.0306733,20.9340362 L13.3340685,20.8890155 L13.3340685,20.8890155 L13.6393052,20.8315971 L13.9392927,20.7630317 L13.9392927,20.7630317 L14.1031202,20.7202476 L14.1031202,20.7202476 L14.3879006,20.6371728 L14.3879006,20.6371728 L14.6730919,20.5422445 L14.9171393,20.4513468 L14.9171393,20.4513468 L15.1706632,20.3470821 L15.1706632,20.3470821 L15.5135286,20.1893762 L15.5135286,20.1893762 L15.7955752,20.0444081 L15.7955752,20.0444081 L16.0141237,19.92201 L16.0141237,19.92201 L16.2553683,19.7761228 L16.2553683,19.7761228 L16.5325977,19.5935742 L16.5325977,19.5935742 L16.7188507,19.4611066 L16.9952406,19.249645 L16.9952406,19.249645 L17.2400281,19.0455262 L17.2400281,19.0455262 L17.6244564,18.6893015 L17.815669,18.4937595 L17.815669,18.4937595 C17.9348203,18.3678156 18.04949,18.2384445 18.1592517,18.1063704 L18.3402907,17.8802972 L18.3402907,17.8802972 L18.5152645,17.6447379 L18.5152645,17.6447379 L18.6818485,17.4023165 L18.6818485,17.4023165 L18.869016,17.1049081 L18.869016,17.1049081 L19.0035995,16.8711719 L19.1276205,16.6379839 L19.2793202,16.3241023 L19.2793202,16.3241023 L19.3271826,16.216574 L19.3271826,16.216574 L19.4307208,15.9698882 L19.4307208,15.9698882 L19.5534923,15.6417274 L19.5534923,15.6417274 L19.6535522,15.3356503 L19.7402303,15.0292768 L19.7402303,15.0292768 L19.8076216,14.7511784 L19.8076216,14.7511784 L19.8775893,14.3994173 L19.911871,14.1913247 L19.911871,14.1913247 L19.9484126,13.9122066 L19.9484126,13.9122066 L19.9792828,13.581916 L19.9792828,13.581916 L19.992141,13.360909 L19.992141,13.360909 L20,13.0615861 L19.996368,12.7489238 L19.996368,12.7489238 L19.9878065,12.552847 L19.9878065,12.552847 C19.9809442,12.4258078 19.9710162,12.2999619 19.9582105,12.1749685 C19.9450147,12.050479 19.9291968,11.9256855 19.9104406,11.8012493 C19.8484558,11.384927 19.753864,10.9792857 19.6298137,10.5867321 L19.5259393,10.2807891 L19.5259393,10.2807891 C19.4810222,10.1556929 19.433029,10.0326561 19.382123,9.91114214 C19.3297797,9.78585337 19.2740252,9.66150464 19.2149361,9.53835533 L19.1362458,9.37985567 L19.1362458,9.37985567 L18.9864989,9.09822659 L18.9864989,9.09822659 L18.858689,8.87921976 L18.858689,8.87921976 L18.7595491,8.71771794 L18.7595491,8.71771794 L18.5536518,8.40950144 L18.5536518,8.40950144 L18.4036396,8.20296549 L18.4036396,8.20296549 L18.2332356,7.98609541 L18.0672817,7.78529205 L17.8171918,7.50788308 C16.4249814,6.03385472 14.4786225,5.08880522 12.3113176,5.00593714 L12.0002356,5 L11.4142356,5.00009541 L13.4144491,3 L12.0002356,1.58578644 L7.586022,6 L12.0002356,10.4142136 L13.4144491,9 L11.4142356,7.00009541 L12.0002356,7 C13.6570898,7 15.1570898,7.67157288 16.2428762,8.75735931 L16.4184966,8.9404237 L16.5598122,9.09951385 L16.5598122,9.09951385 L16.7852356,9.38009541 L16.8477493,9.46278322 L16.9672882,9.63226809 L17.0802838,9.80486993 L17.0802838,9.80486993 L17.2852356,10.1570954 L17.422791,10.4279359 L17.553266,10.7234251 L17.6390193,10.9448328 L17.7220011,11.1887264 L17.7627013,11.3228925 L17.7627013,11.3228925 L17.8402868,11.6200104 L17.9026798,11.9193929 L17.9221173,12.032171 L17.9682356,12.3860954 L17.9872356,12.6140954 L17.9977684,12.8274157 L17.9960859,13.2250215 L17.9773498,13.5273742 L17.9437442,13.8264854 L17.874462,14.2254126 L17.8182356,14.4710954 L17.7493432,14.7228682 L17.6712356,14.9640954 L17.5669314,15.2428639 L17.4466129,15.5212206 L17.4466129,15.5212206 L17.2352356,15.9350954 L17.0473669,16.2465727 L16.9542356,16.3850954 L16.8135136,16.58334 C16.7576497,16.6581959 16.6999712,16.7318437 16.6405121,16.804222 L16.4480437,17.0272153 L16.2340476,17.2514514 C16.1315778,17.3535039 16.0260747,17.4513349 15.9177663,17.544879 C15.8227673,17.6268221 15.7256818,17.7055024 15.6264322,17.7809607 L15.4405628,17.9169015 L15.4405628,17.9169015 L15.183174,18.0876044 L15.183174,18.0876044 L14.8782356,18.2660954 L14.6262356,18.3970954 L14.4095509,18.4970921 L14.1576829,18.6007036 L14.1576829,18.6007036 L13.8952356,18.6950954 L13.6132356,18.7810954 L13.2672356,18.8660954 L13.1242356,18.8950954 L12.9566679,18.9240568 L12.8042356,18.9460954 L12.5382113,18.976138 L12.3954759,18.987147 L12.3954759,18.987147 L12.1772356,18.9960954 L11.9106219,18.9993444 L11.6952356,18.9930954 L11.4322356,18.9740954 L11.2002356,18.9480954 L10.8452356,18.8890954 L10.5672356,18.8280954 L10.3622356,18.7740954 L10.2762356,18.7490954 L9.99523558,18.6570954 L9.66723558,18.5300954 L9.28743756,18.353146 L9.02964596,18.2142089 L9.02964596,18.2142089 L8.73823558,18.0370954 L8.67423558,17.9950954 L8.43419296,17.826265 L8.31208888,17.7333595 L8.31208888,17.7333595 L8.07523558,17.5380954 L7.95257738,17.4290986 L7.75759487,17.2426407 L7.49723558,16.9660954 L7.31623558,16.7510954 L7.16264567,16.5500042 L7.0952181,16.4564091 L6.93969159,16.224888 L6.93969159,16.224888 L6.74223558,15.8940954 L6.52818241,15.4649769 L6.43323558,15.2430954 L6.32565532,14.9541615 C6.30047595,14.88103 6.27667047,14.807259 6.25426973,14.7328793 L6.19549771,14.5220539 L6.14244899,14.302072 L6.14244899,14.302072 L6.07523558,13.9550954 L6.03223558,13.6320954 L6.01123558,13.3610954 L6.00143842,13.1205129 C5.97183561,11.6377351 6.48863643,10.1460754 7.55184087,8.97341485 L7.75759487,8.75735931 L6.34338131,7.34314575 C4.78141149,8.90511558 4.00023558,10.9522877 4.00023558,12.9994993 L4.00186009,13.1617185 L4.00186009,13.1617185 L4.0127085,13.4479416 L4.0127085,13.4479416 C4.01999345,13.5826522 4.03079464,13.7168496 4.04486572,13.8500718 C4.05757171,13.9661055 4.07252074,14.0825838 4.09003056,14.1987507 C4.13796209,14.5205938 4.20536143,14.8360602 4.29079619,15.1440302 L4.39575746,15.4900438 L4.39575746,15.4900438 L4.47849322,15.7301722 L4.47849322,15.7301722 C4.52800095,15.8673678 4.58158263,16.0031302 4.63871012,16.1370175 C4.68514348,16.2462349 4.73407468,16.3543946 4.78553501,16.4616447 C4.89451529,16.6876098 5.01359328,16.9079571 5.14238944,17.1217888 L5.24868758,17.2944893 L5.24868758,17.2944893 L5.45145705,17.5970984 L5.45145705,17.5970984 L5.59683156,17.7970345 L5.59683156,17.7970345 L5.78660126,18.0399292 L5.99871213,18.2901855 L5.99871213,18.2901855 L6.31123558,18.6240954 L6.38141903,18.6946395 L6.58455299,18.888215 L6.58455299,18.888215 L6.84623395,19.1189652 L6.84623395,19.1189652 L7.08242497,19.310717 L7.08242497,19.310717 L7.30487285,19.4779048 L7.30487285,19.4779048 L7.61301535,19.6912364 L7.84030583,19.8351323 L7.84030583,19.8351323 L8.09451625,19.9837029 L8.09451625,19.9837029 L8.39068619,20.1415094 L8.59155465,20.2395511 L8.59155465,20.2395511 L8.94523886,20.3958293 L8.94523886,20.3958293 L9.07292006,20.4474695 L9.07292006,20.4474695 L9.36505139,20.5557984 L9.36505139,20.5557984 L9.53421415,20.6122775 L9.53421415,20.6122775 C9.78360262,20.6932716 10.0381152,20.7621217 10.2972316,20.8183341 L10.7284515,20.8990792 L10.7284515,20.8990792 L11.0599285,20.9451165 L11.0599285,20.9451165 L11.3570394,20.9744434 L11.3570394,20.9744434 Z" id="Path" fill="#FFFFFF" fill-rule="nonzero"></path>
    </g>
</svg>