<?xml version="1.0" encoding="UTF-8"?>
<svg width="375px" height="812px" viewBox="0 0 375 812" version="1.1" xmlns="http://www.w3.org/2000/svg" xmlns:xlink="http://www.w3.org/1999/xlink">
    <!-- Generator: Sketch 61 (89581) - https://sketch.com -->
    <title>Pattern Container</title>
    <desc>Created with Sketch.</desc>
    <defs>
        <rect id="path-1" x="0" y="0" width="375" height="812"></rect>
        <linearGradient x1="50%" y1="75.183469%" x2="50%" y2="0%" id="linearGradient-3">
            <stop stop-color="#FFFFFF" stop-opacity="0" offset="0%"></stop>
            <stop stop-color="#FFFFFF" stop-opacity="0.16" offset="100%"></stop>
        </linearGradient>
        <linearGradient x1="97.5430343%" y1="36.0880997%" x2="18.0124729%" y2="36.0880997%" id="linearGradient-4">
            <stop stop-color="#FFFFFF" stop-opacity="0" offset="0%"></stop>
            <stop stop-color="#FFFFFF" stop-opacity="0.32" offset="100%"></stop>
        </linearGradient>
    </defs>
    <g id="Background" stroke="none" stroke-width="1" fill="none" fill-rule="evenodd">
        <g id="background/bg-1">
            <mask id="mask-2" fill="white">
                <use xlink:href="#path-1"></use>
            </mask>
            <use id="Pattern-Container" fill="#7E59CB" xlink:href="#path-1"></use>
            <rect id="Rectangle" fill="url(#linearGradient-3)" fill-rule="nonzero" mask="url(#mask-2)" transform="translate(188.000000, 428.000000) rotate(180.000000) translate(-188.000000, -428.000000) " x="184" y="299" width="8" height="258"></rect>
            <rect id="Rectangle-Copy" fill="url(#linearGradient-3)" fill-rule="nonzero" mask="url(#mask-2)" transform="translate(164.000000, 396.000000) rotate(180.000000) translate(-164.000000, -396.000000) " x="160" y="267" width="8" height="258"></rect>
            <rect id="Rectangle-Copy-2" fill="url(#linearGradient-3)" fill-rule="nonzero" mask="url(#mask-2)" transform="translate(212.000000, 396.000000) rotate(180.000000) translate(-212.000000, -396.000000) " x="208" y="267" width="8" height="258"></rect>
            <path d="M348.5,968 C452.605675,968 537,883.829533 537,780 C537,676.170467 452.605675,592 348.5,592 C244.394325,592 160,676.170467 160,780 C160,883.829533 244.394325,968 348.5,968 Z M349,949 C255.663877,949 180,873.336123 180,780 C180,686.663877 255.663877,611 349,611 C442.336123,611 518,686.663877 518,780 C518,873.336123 442.336123,949 349,949 Z" id="Oval" fill="url(#linearGradient-4)" fill-rule="nonzero" mask="url(#mask-2)" transform="translate(348.500000, 780.000000) scale(-1, 1) translate(-348.500000, -780.000000) "></path>
            <g id="Dot-Patterns-Copy" mask="url(#mask-2)" fill-opacity="0.24">
                <g transform="translate(375.000000, 293.000000) rotate(45.000000) translate(-375.000000, -293.000000) translate(323.000000, 241.000000)">
                    <g id="Row-7" transform="translate(0.000000, 96.000000)">
                        <circle id="Dot-56" fill="#FFFFFF" style="mix-blend-mode: overlay;" cx="4" cy="4" r="4"></circle>
                        <circle id="Dot-55" fill="#FFFFFF" style="mix-blend-mode: overlay;" cx="52" cy="4" r="4"></circle>
                        <circle id="Dot-54" fill="#FFFFFF" style="mix-blend-mode: overlay;" cx="100" cy="4" r="4"></circle>
                        <circle id="Dot-52" fill="#FFFFFF" style="mix-blend-mode: overlay;" cx="28" cy="4" r="4"></circle>
                        <circle id="Dot-51" fill="#FFFFFF" style="mix-blend-mode: overlay;" cx="76" cy="4" r="4"></circle>
                    </g>
                    <g id="Row-4" transform="translate(0.000000, 72.000000)">
                        <circle id="Dot-32" fill="#FFFFFF" style="mix-blend-mode: overlay;" cx="4" cy="4" r="4"></circle>
                        <circle id="Dot-31" fill="#FFFFFF" style="mix-blend-mode: overlay;" cx="52" cy="4" r="4"></circle>
                        <circle id="Dot-28" fill="#FFFFFF" style="mix-blend-mode: overlay;" cx="28" cy="4" r="4"></circle>
                        <circle id="Dot-27" fill="#FFFFFF" style="mix-blend-mode: overlay;" cx="76" cy="4" r="4"></circle>
                    </g>
                    <g id="Row-3" transform="translate(0.000000, 48.000000)">
                        <circle id="Dot-24" fill="#FFFFFF" style="mix-blend-mode: overlay;" cx="4" cy="4" r="4"></circle>
                        <circle id="Dot-23" fill="#FFFFFF" style="mix-blend-mode: overlay;" cx="52" cy="4" r="4"></circle>
                        <circle id="Dot-20" fill="#FFFFFF" style="mix-blend-mode: overlay;" cx="28" cy="4" r="4"></circle>
                    </g>
                    <g id="Row-2" transform="translate(0.000000, 24.000000)">
                        <circle id="Dot-16" fill="#FFFFFF" style="mix-blend-mode: overlay;" cx="4" cy="4" r="4"></circle>
                        <circle id="Dot-12" fill="#FFFFFF" style="mix-blend-mode: overlay;" cx="28" cy="4" r="4"></circle>
                    </g>
                    <g id="Row-1">
                        <circle id="Dot-8" fill="#FFFFFF" style="mix-blend-mode: overlay;" cx="4" cy="4" r="4"></circle>
                    </g>
                </g>
            </g>
            <circle id="Oval-Copy" fill="#714CBE" mask="url(#mask-2)" cx="64.5" cy="95.5" r="151.5"></circle>
        </g>
    </g>
</svg>