<svg height="812" viewBox="0 0 375 812" width="375" xmlns="http://www.w3.org/2000/svg" xmlns:xlink="http://www.w3.org/1999/xlink"><defs><rect id="a" height="812" rx="40" width="375"/><linearGradient id="b" x1="50%" x2="50%" y1="75.183469%" y2="0%"><stop offset="0" stop-color="#fff" stop-opacity="0"/><stop offset="1" stop-color="#fff" stop-opacity=".16"/></linearGradient><linearGradient id="c" x1="97.543034%" x2="18.012473%" y1="36.0881%" y2="36.0881%"><stop offset="0" stop-color="#fff" stop-opacity="0"/><stop offset="1" stop-color="#fff" stop-opacity=".32"/></linearGradient><mask id="d" fill="#fff"><use fill="#fff" fill-rule="evenodd" xlink:href="#a"/></mask></defs><g fill="none" fill-rule="evenodd"><use fill="#7e59cb" xlink:href="#a"/><g fill-rule="nonzero"><path d="m184 299h8v258h-8z" fill="url(#b)" mask="url(#d)" transform="matrix(-1 0 0 -1 376 856)"/><path d="m160 267h8v258h-8z" fill="url(#b)" mask="url(#d)" transform="matrix(-1 0 0 -1 328 792)"/><path d="m208 267h8v258h-8z" fill="url(#b)" mask="url(#d)" transform="matrix(-1 0 0 -1 424 792)"/><path d="m348.5 968c104.105675 0 188.5-84.170467 188.5-188s-84.394325-188-188.5-188-188.5 84.170467-188.5 188 84.394325 188 188.5 188zm.5-19c-93.336123 0-169-75.663877-169-169s75.663877-169 169-169 169 75.663877 169 169-75.663877 169-169 169z" fill="url(#c)" mask="url(#d)" transform="matrix(-1 0 0 1 697 0)"/></g><g fill-opacity=".24" mask="url(#d)"><g fill="#fff" transform="matrix(.70710678 .70710678 -.70710678 .70710678 375 219.460895)"><g transform="translate(0 96)"><circle cx="4" cy="4" r="4"/><circle cx="52" cy="4" r="4"/><circle cx="100" cy="4" r="4"/><circle cx="28" cy="4" r="4"/><circle cx="76" cy="4" r="4"/></g><g transform="translate(0 72)"><circle cx="4" cy="4" r="4"/><circle cx="52" cy="4" r="4"/><circle cx="28" cy="4" r="4"/><circle cx="76" cy="4" r="4"/></g><g transform="translate(0 48)"><circle cx="4" cy="4" r="4"/><circle cx="52" cy="4" r="4"/><circle cx="28" cy="4" r="4"/></g><g transform="translate(0 24)"><circle cx="4" cy="4" r="4"/><circle cx="28" cy="4" r="4"/></g><circle cx="4" cy="4" r="4"/></g></g><circle cx="64.5" cy="95.5" fill="#714cbe" mask="url(#d)" r="151.5"/></g></svg>