<?xml version="1.0" encoding="UTF-8"?>
<svg width="375px" height="812px" viewBox="0 0 375 812" version="1.1" xmlns="http://www.w3.org/2000/svg" xmlns:xlink="http://www.w3.org/1999/xlink">
    <!-- Generator: Sketch 61 (89581) - https://sketch.com -->
    <title>pattern/pattern-3</title>
    <desc>Created with Sketch.</desc>
    <defs>
        <rect id="path-1" x="0" y="0" width="375" height="812"></rect>
        <linearGradient x1="100%" y1="34.7405196%" x2="-7.70433164%" y2="147.9397%" id="linearGradient-3">
            <stop stop-color="#FFFFFF" stop-opacity="0" offset="0%"></stop>
            <stop stop-color="#FFFFFF" stop-opacity="0.32" offset="100%"></stop>
        </linearGradient>
        <linearGradient x1="-54.1656198%" y1="-35.8447531%" x2="135.040705%" y2="90.0908123%" id="linearGradient-4">
            <stop stop-color="#BDA6EB" offset="0%"></stop>
            <stop stop-color="#9377CD" offset="100%"></stop>
        </linearGradient>
        <linearGradient x1="127.091202%" y1="-44.2044407%" x2="0%" y2="56.0435867%" id="linearGradient-5">
            <stop stop-color="#BDA6EB" offset="0%"></stop>
            <stop stop-color="#9377CD" offset="100%"></stop>
        </linearGradient>
        <linearGradient x1="39.0229861%" y1="-30.6493879%" x2="59.1527296%" y2="81.2394297%" id="linearGradient-6">
            <stop stop-color="#BDA6EB" offset="0%"></stop>
            <stop stop-color="#9377CD" offset="100%"></stop>
        </linearGradient>
    </defs>
    <g id="Background" stroke="none" stroke-width="1" fill="none" fill-rule="evenodd">
        <g id="background/bg-3">
            <g id="pattern/pattern-3">
                <mask id="mask-2" fill="white">
                    <use xlink:href="#path-1"></use>
                </mask>
                <use id="Pattern-Container" fill="#7E59CB" xlink:href="#path-1"></use>
                <path d="M30.5,564 C99.8117361,564 156,507.811736 156,438.5 C156,369.188264 99.8117361,313 30.5,313 C-38.8117361,313 -95,369.188264 -95,438.5 C-95,507.811736 -38.8117361,564 30.5,564 Z M31,532 C-20.9147665,532 -63,489.914766 -63,438 C-63,386.085234 -20.9147665,344 31,344 C82.9147665,344 125,386.085234 125,438 C125,489.914766 82.9147665,532 31,532 Z" id="Oval" fill="url(#linearGradient-3)" fill-rule="nonzero" mask="url(#mask-2)"></path>
                <g id="Cube" mask="url(#mask-2)">
                    <g transform="translate(375.000000, 97.000000) rotate(-45.000000) translate(-375.000000, -97.000000) translate(247.000000, -31.000000)">
                        <rect id="Rectangle" fill="url(#linearGradient-4)" x="0" y="128" width="128" height="128"></rect>
                        <polygon id="Rectangle-Copy-2" fill="url(#linearGradient-5)" points="128 0 256 0 256 128 128 256 128 128 0 128"></polygon>
                        <polygon id="Rectangle-Copy-3" fill="url(#linearGradient-6)" points="256 0 256 128 128 256 128 128"></polygon>
                    </g>
                </g>
            </g>
        </g>
    </g>
</svg>