<?xml version="1.0" encoding="UTF-8"?>
<svg width="375px" height="812px" viewBox="0 0 375 812" version="1.1" xmlns="http://www.w3.org/2000/svg" xmlns:xlink="http://www.w3.org/1999/xlink">
    <!-- Generator: Sketch 61 (89581) - https://sketch.com -->
    <title>pattern/pattern-4</title>
    <desc>Created with Sketch.</desc>
    <defs>
        <rect id="path-1" x="0" y="0" width="375" height="812" rx="40"></rect>
        <linearGradient x1="14.4228065%" y1="84.1878789%" x2="14.4228065%" y2="9.2037251%" id="linearGradient-3">
            <stop stop-color="#FFFFFF" stop-opacity="0" offset="0%"></stop>
            <stop stop-color="#FFFFFF" stop-opacity="0.16" offset="100%"></stop>
        </linearGradient>
    </defs>
    <g id="Background" stroke="none" stroke-width="1" fill="none" fill-rule="evenodd">
        <g id="background/bg-4">
            <g id="pattern/pattern-4">
                <mask id="mask-2" fill="white">
                    <use xlink:href="#path-1"></use>
                </mask>
                <use id="Pattern-Container" fill="#7E59CB" xlink:href="#path-1"></use>
                <path d="M407,444 C329.680135,444 267,506.680135 267,584 C267,599.463973 279.536027,612 295,612 C310.309333,612 322.748987,599.71344 322.996249,584.463031 L323,584 C323,538.072 359.85968,500.75304 405.610906,500.011254 L407,500 C422.463973,500 435,487.463973 435,472 C435,456.536027 422.463973,444 407,444 Z" id="Oval" fill="url(#linearGradient-3)" fill-rule="nonzero" mask="url(#mask-2)"></path>
                <rect id="Rectangle" fill="#714CBE" fill-rule="nonzero" mask="url(#mask-2)" transform="translate(-8.000000, 467.000000) rotate(45.000000) translate(8.000000, -467.000000) " x="-136" y="107" width="256" height="720" rx="128"></rect>
                <g id="Dot-Patterns-Copy" mask="url(#mask-2)" fill-opacity="0.24">
                    <g transform="translate(303.000000, 114.000000)">
                        <g id="Row-7" transform="translate(0.000000, 96.000000)">
                            <circle id="Dot-56" fill="#FFFFFF" style="mix-blend-mode: overlay;" cx="4" cy="4" r="4"></circle>
                            <circle id="Dot-55" fill="#FFFFFF" style="mix-blend-mode: overlay;" cx="52" cy="4" r="4"></circle>
                            <circle id="Dot-52" fill="#FFFFFF" style="mix-blend-mode: overlay;" cx="28" cy="4" r="4"></circle>
                        </g>
                        <g id="Row-4" transform="translate(0.000000, 72.000000)">
                            <circle id="Dot-32" fill="#FFFFFF" style="mix-blend-mode: overlay;" cx="4" cy="4" r="4"></circle>
                            <circle id="Dot-31" fill="#FFFFFF" style="mix-blend-mode: overlay;" cx="52" cy="4" r="4"></circle>
                            <circle id="Dot-28" fill="#FFFFFF" style="mix-blend-mode: overlay;" cx="28" cy="4" r="4"></circle>
                        </g>
                        <g id="Row-3" transform="translate(0.000000, 48.000000)">
                            <circle id="Dot-24" fill="#FFFFFF" style="mix-blend-mode: overlay;" cx="4" cy="4" r="4"></circle>
                            <circle id="Dot-23" fill="#FFFFFF" style="mix-blend-mode: overlay;" cx="52" cy="4" r="4"></circle>
                            <circle id="Dot-20" fill="#FFFFFF" style="mix-blend-mode: overlay;" cx="28" cy="4" r="4"></circle>
                        </g>
                        <g id="Row-2" transform="translate(0.000000, 24.000000)">
                            <circle id="Dot-16" fill="#FFFFFF" style="mix-blend-mode: overlay;" cx="4" cy="4" r="4"></circle>
                            <circle id="Dot-15" fill="#FFFFFF" style="mix-blend-mode: overlay;" cx="52" cy="4" r="4"></circle>
                            <circle id="Dot-12" fill="#FFFFFF" style="mix-blend-mode: overlay;" cx="28" cy="4" r="4"></circle>
                        </g>
                        <g id="Row-1">
                            <circle id="Dot-8" fill="#FFFFFF" style="mix-blend-mode: overlay;" cx="4" cy="4" r="4"></circle>
                            <circle id="Dot-7" fill="#FFFFFF" style="mix-blend-mode: overlay;" cx="52" cy="4" r="4"></circle>
                            <circle id="Dot-4" fill="#FFFFFF" style="mix-blend-mode: overlay;" cx="28" cy="4" r="4"></circle>
                        </g>
                    </g>
                </g>
            </g>
        </g>
    </g>
</svg>